<?xml version="1.0" encoding="UTF-8"?>
<svg version="1.1" xmlns="http://www.w3.org/2000/svg" width="1024" height="1024">
<path d="M0 0 C337.92 0 675.84 0 1024 0 C1024 337.92 1024 675.84 1024 1024 C686.08 1024 348.16 1024 0 1024 C0 686.08 0 348.16 0 0 Z " fill="#D8D9D3" transform="translate(0,0)"/>
<path d="M0 0 C61.38 0 122.76 0 186 0 C186 60.39 186 120.78 186 183 C192.27 183 198.54 183 205 183 C206.32 183.66 207.64 184.32 209 185 C207.515 187.475 207.515 187.475 206 190 C206.66 190.33 207.32 190.66 208 191 C208 191.66 208 192.32 208 193 C208.66 193.33 209.32 193.66 210 194 C176.67 193.67 143.34 193.34 109 193 C109 199.27 109 205.54 109 212 C108.34 212.66 107.68 213.32 107 214 C105.39274365 210.78548731 105.94251815 207.56387464 106 204 C105.01 204.33 104.02 204.66 103 205 C102.34 204.67 101.68 204.34 101 204 C100.86695408 196.12178841 100.7364488 188.24353869 100.60884857 180.36523724 C100.54947178 176.70367617 100.4893446 173.04213124 100.42724609 169.38061523 C100.10910231 150.58347999 99.94843855 131.80059211 100 113 C87.46 113 74.92 113 62 113 C62 245 62 377 62 513 C74.87 513 87.74 513 101 513 C101.33 511.35 101.66 509.7 102 508 C102.66 508 103.32 508 104 508 C104.33 508.99 104.66 509.98 105 511 C105.66 511.33 106.32 511.66 107 512 C107.33 511.34 107.66 510.68 108 510 C108 510.66 108 511.32 108 512 C170.37 512.495 170.37 512.495 234 513 C234 497.82 234 482.64 234 467 C230.58325928 466.98018066 227.16651855 466.96036133 223.64624023 466.93994141 C212.35456861 466.87302058 201.06298657 466.79547987 189.77142239 466.71247292 C182.92568114 466.6624073 176.07995151 466.61596385 169.23413086 466.578125 C162.62697363 466.54159504 156.01993905 466.49486846 149.41288948 466.44193649 C146.89276441 466.42341072 144.37261188 466.40829607 141.8524456 466.39665604 C138.32133745 466.37976286 134.79052183 466.3507195 131.25952148 466.31884766 C129.69829559 466.31560738 129.69829559 466.31560738 128.10552979 466.31230164 C122.68487931 466.24984181 118.12591245 465.79658816 113 464 C113 463.34 113 462.68 113 462 C112.34 462 111.68 462 111 462 C110.10113192 458.90206257 109.85048451 456.08510617 109.79467773 452.86425781 C109.77473251 451.84350159 109.75478729 450.82274536 109.73423767 449.77105713 C109.70916893 448.12868073 109.70916893 448.12868073 109.68359375 446.453125 C109.66281265 445.3267865 109.64203156 444.200448 109.62062073 443.03997803 C109.55525667 439.44338051 109.49630115 435.84671023 109.4375 432.25 C109.3943023 429.8111904 109.3506876 427.37238816 109.30664062 424.93359375 C109.1995887 418.955806 109.09779783 412.97794593 109 407 C109.66 407 110.32 407 111 407 C111.12375 406.401875 111.2475 405.80375 111.375 405.1875 C112 403 112 403 114 400 C116.86624146 399.59454346 116.86624146 399.59454346 120.58251953 399.55175781 C121.25936798 399.53995987 121.93621643 399.52816193 122.63357544 399.51600647 C124.8833816 399.48058308 127.13277582 399.46659224 129.3828125 399.453125 C130.95589602 399.43372058 132.52896583 399.41317484 134.10202026 399.39154053 C137.41255177 399.34908428 140.72298271 399.31649343 144.03369141 399.29150391 C148.23157914 399.25962096 152.4289975 399.21003839 156.62661934 399.15358353 C159.88527513 399.11073795 163.14397805 399.07453546 166.40273666 399.0404892 C167.94695276 399.02418582 169.4911565 399.00665597 171.03534317 398.98777008 C179.01436625 398.89617051 186.98050917 398.93875755 194.95263672 399.31152344 C196.25884979 399.36967224 197.56506287 399.42782104 198.91085815 399.48773193 C199.93027496 399.6567804 200.94969177 399.82582886 202 400 C202.66 400.99 203.32 401.98 204 403 C206.75641416 402.50243908 206.75641416 402.50243908 209 401 C211.67058851 400.85884839 214.32432238 400.95752893 217 401 C217 400.34 217 399.68 217 399 C216.34 399 215.68 399 215 399 C215 311.55 215 224.1 215 134 C215.33 134 215.66 134 216 134 C216 221.12 216 308.24 216 398 C221.94 398 227.88 398 234 398 C234 310.88 234 223.76 234 134 C237.3 134 240.6 134 244 134 C244 221.12 244 308.24 244 398 C249.94 398 255.88 398 262 398 C262 323.75 262 249.5 262 173 C265.63 173.33 269.26 173.66 273 174 C275.84274738 173.02171918 275.84274738 173.02171918 277.8125 171.1875 C285.47405768 164.94859133 294.53890503 165.07610187 304 166 C313.19510776 167.89111206 321.04476426 172.95529776 326.875 180.3125 C332.44708279 189.00803405 333.40082881 199.49389229 331.53125 209.51171875 C328.86170847 218.61676218 323.33574522 226.37527795 315 231 C305.44001658 235.40280442 295.26087005 236.84715601 285.0625 233.75 C280.408254 231.94476856 276.54689623 229.54689623 273 226 C272.67 282.76 272.34 339.52 272 398 C293.45 398 314.9 398 337 398 C337 401.63 337 405.26 337 409 C323.8 409 310.6 409 297 409 C297 424.51 297 440.02 297 456 C310.2 456 323.4 456 337 456 C337 459.63 337 463.26 337 467 C323.8 467 310.6 467 297 467 C297 482.18 297 497.36 297 513 C310.2 513 323.4 513 337 513 C337 516.63 337 520.26 337 524 C323.8 524 310.6 524 297 524 C297 540.83 297 557.66 297 575 C288.75 575 280.5 575 272 575 C272.02320313 577.21460938 272.04640625 579.42921875 272.0703125 581.7109375 C272.08590314 583.85220771 272.0980512 585.99347164 272.10986328 588.13476562 C272.11993043 589.6247032 272.13358518 591.11462097 272.15087891 592.60449219 C272.17509653 594.74419028 272.18647564 596.88362753 272.1953125 599.0234375 C272.20578613 600.31169434 272.21625977 601.59995117 272.22705078 602.92724609 C272 606 272 606 270 608 C267 608.25 267 608.25 264 608 C262 606 262 606 261.77294922 602.92724609 C261.78342285 601.63898926 261.79389648 600.35073242 261.8046875 599.0234375 C261.80893234 597.99556625 261.80893234 597.99556625 261.81326294 596.94692993 C261.82446719 594.75610973 261.84957141 592.56569684 261.875 590.375 C261.88502952 588.8906309 261.89415542 587.4062554 261.90234375 585.921875 C261.92270677 582.28096644 261.96185279 578.64093968 262 575 C256.06 575 250.12 575 244 575 C244 586.22 244 597.44 244 609 C240.7 609 237.4 609 234 609 C234 597.78 234 586.56 234 575 C193.08 575 152.16 575 110 575 C110 589.85 110 604.7 110 620 C106.7 620 103.4 620 100 620 C100 588.32 100 556.64 100 524 C87.46 524 74.92 524 62 524 C62 555.68 62 587.36 62 620 C58.37 620 54.74 620 51 620 C51 588.32 51 556.64 51 524 C37.47 524 23.94 524 10 524 C10 536.54 10 549.08 10 562 C6.7 562 3.4 562 0 562 C0 549.46 0 536.92 0 524 C-21.45 524 -42.9 524 -65 524 C-65 520.37 -65 516.74 -65 513 C-51.14 513 -37.28 513 -23 513 C-23 497.82 -23 482.64 -23 467 C-37.19 467 -51.38 467 -66 467 C-66 463.37 -66 459.74 -66 456 C-51.81 456 -37.62 456 -23 456 C-23 440.49 -23 424.98 -23 409 C-37.19 409 -51.38 409 -66 409 C-66 405.37 -66 401.74 -66 398 C-44.22 398 -22.44 398 0 398 C0 367.31 0 336.62 0 305 C-21.58568347 305.11875979 -21.58568347 305.11875979 -43.17114258 305.27026367 C-45.87060187 305.27902277 -48.5700651 305.28666806 -51.26953125 305.29296875 C-51.97156174 305.30080887 -52.67359222 305.30864899 -53.39689636 305.31672668 C-55.46508978 305.33866816 -57.53253781 305.34171877 -59.60083008 305.34057617 C-61.34956169 305.35056892 -61.34956169 305.35056892 -63.13362122 305.36076355 C-66 305 -66 305 -67.88041687 303.67012024 C-69.60390527 301.09913397 -69.31979864 299.00610719 -69 296 C-68.34 295.34 -67.68 294.68 -67 294 C-44.89 294 -22.78 294 0 294 C0 196.98 0 99.96 0 0 Z " fill="#1B2024" transform="translate(382,196)"/>
<path d="M0 0 C12.54 0 25.08 0 38 0 C38.85031089 19.53036912 39.13049956 38.97815011 39.06866455 58.52191162 C39.05818298 62.2040547 39.05381547 65.88620549 39.04882812 69.56835938 C39.03830363 76.71225727 39.02138434 83.85612561 39 91 C40.65 91 42.3 91 44 91 C44.495 94.96 44.495 94.96 45 99 C45.33 99 45.66 99 46 99 C46.33 92.73 46.66 86.46 47 80 C79.67 80 112.34 80 146 80 C146 79.34 146 78.68 146 78 C145.01 78.33 144.02 78.66 143 79 C144.875 73.125 144.875 73.125 146 72 C145.34 71.67 144.68 71.34 144 71 C143.67 71.66 143.34 72.32 143 73 C143.33 55.84 143.66 38.68 144 21 C146.97 21 149.94 21 153 21 C153 108.45 153 195.9 153 286 C153.66 286 154.32 286 155 286 C155.33 286.99 155.66 287.98 156 289 C154.72125 288.95875 153.4425 288.9175 152.125 288.875 C149.98128508 288.75787127 149.98128508 288.75787127 148 289 C147.34 289.66 146.68 290.32 146 291 C146 290.34 146 289.68 146 289 C145.01 289 144.02 289 143 289 C142.67 289.66 142.34 290.32 142 291 C141.34 290.34 140.68 289.68 140 289 C140 288.67 140 288.34 140 288 C121.5551228 286.99797831 103.14823694 286.87346553 84.68408203 286.93133545 C80.98210241 286.94178425 77.28011528 286.94617796 73.578125 286.95117188 C66.38539713 286.96172168 59.19270485 286.97866111 52 287 C51.566875 287.86625 51.566875 287.86625 51.125 288.75 C50.42033072 290.15933855 49.67810192 291.55116919 48.88345337 292.9118042 C47.76657287 295.55174566 47.79786427 297.54859073 47.86474609 300.41113281 C47.88491791 301.49195129 47.90508972 302.57276978 47.9258728 303.68634033 C47.95806915 304.84687927 47.9902655 306.00741821 48.0234375 307.203125 C48.04846344 308.39605164 48.07348938 309.58897827 48.09927368 310.8180542 C48.1814584 314.62899246 48.27805555 318.4394114 48.375 322.25 C48.433241 324.8333121 48.49054425 327.41664553 48.546875 330 C48.68703518 336.333621 48.83903046 342.66687556 49 349 C49.66 349 50.32 349 51 349 C51.33 349.66 51.66 350.32 52 351 C57.42798772 352.38703544 63.04204811 352.16592435 68.60766602 352.18945312 C69.6636499 352.19774643 70.71963379 352.20603973 71.80761719 352.21458435 C74.09436635 352.23194429 76.38113289 352.24712206 78.66790962 352.26036072 C82.28654163 352.28144011 85.90508632 352.30845777 89.52366638 352.33703613 C98.50844967 352.40676667 107.49329555 352.46626009 116.47814941 352.52606201 C124.07593951 352.57701483 131.67368225 352.63184385 139.27140617 352.69187927 C142.8371375 352.71843888 146.40287332 352.7392603 149.96864319 352.7598877 C152.15300713 352.77649132 154.33736906 352.79336321 156.52172852 352.81054688 C158.00947029 352.8168235 158.00947029 352.8168235 159.52726746 352.82322693 C160.44261261 352.83157059 161.35795776 352.83991425 162.30104065 352.84851074 C163.09244226 352.85366447 163.88384386 352.85881821 164.69922733 352.86412811 C167 353 167 353 172 354 C172 369.18 172 384.36 172 400 C155.93602918 400.04516841 139.87211265 400.08200172 123.80809593 400.10362434 C116.34909159 400.1139315 108.89012954 400.1279811 101.43115234 400.15087891 C94.92897374 400.17082997 88.42682577 400.18372052 81.92461741 400.18817699 C78.48259795 400.19078147 75.04066612 400.19689141 71.59867477 400.21146011 C67.75375491 400.22760187 63.90892033 400.22797858 60.06396484 400.22705078 C58.92604492 400.23424133 57.788125 400.24143188 56.61572266 400.24884033 C51.35614949 400.23508962 46.90757331 400.15401906 42 398 C42 397.01 42 396.02 42 395 C41.34 395 40.68 395 40 395 C39.67 396.32 39.34 397.64 39 399 C39.99 399.33 40.98 399.66 42 400 C28.418005 403.39549875 13.99515487 400.36829355 0 400 C0 268 0 136 0 0 Z " fill="#161C1F" transform="translate(444,309)"/>
<path d="M0 0 C54.78 0 109.56 0 166 0 C166 39.93 166 79.86 166 121 C144.22 121 122.44 121 100 121 C100 96.25 100 71.5 100 46 C80.53 46 61.06 46 41 46 C41 158.86 41 271.72 41 388 C27.47 388 13.94 388 0 388 C0.33 357.31 0.66 326.62 1 295 C5.29 295 9.58 295 14 295 C14 291.37 14 287.74 14 284 C9.38 284 4.76 284 0 284 C0 190.28 0 96.56 0 0 Z " fill="#D7D9D3" transform="translate(392,206)"/>
<path d="M0 0 C12.54 0 25.08 0 38 0 C38 132 38 264 38 400 C25.46 400 12.92 400 0 400 C0 268 0 136 0 0 Z " fill="#FAF8ED" transform="translate(444,309)"/>
<path d="M0 0 C58.41 0 116.82 0 177 0 C177 13.2 177 26.4 177 40 C118.59 40 60.18 40 0 40 C0 26.8 0 13.6 0 0 Z " fill="#4B5359" transform="translate(492,720)"/>
<path d="M0 0 C54.78 0 109.56 0 166 0 C166 39.93 166 79.86 166 121 C165.67 121 165.34 121 165 121 C165 81.4 165 41.8 165 1 C110.88 1 56.76 1 1 1 C1.33 75.91 1.66 150.82 2 228 C14.87 228 27.74 228 41 228 C41 280.8 41 333.6 41 388 C27.47 388 13.94 388 0 388 C0.33 357.31 0.66 326.62 1 295 C5.29 295 9.58 295 14 295 C14 291.37 14 287.74 14 284 C9.38 284 4.76 284 0 284 C0 190.28 0 96.56 0 0 Z " fill="#B3A588" transform="translate(392,206)"/>
<path d="M0 0 C141 0 141 0 146 1 C146 1.66 146 2.32 146 3 C147.32 3 148.64 3 150 3 C150 2.34 150 1.68 150 1 C153.93268867 0.97526132 157.86534713 0.95712165 161.7980957 0.94506836 C163.79314768 0.93757271 165.78817786 0.92486655 167.78320312 0.91210938 C169.03681641 0.90888672 170.29042969 0.90566406 171.58203125 0.90234375 C172.73936768 0.89710693 173.8967041 0.89187012 175.08911133 0.88647461 C178 1 178 1 181 2 C180.71890887 3.64767247 180.42481474 5.29313145 180.125 6.9375 C179.88136719 8.31228516 179.88136719 8.31228516 179.6328125 9.71484375 C179.42398438 10.46894531 179.21515625 11.22304687 179 12 C178.34 12.33 177.68 12.66 177 13 C177.33 11.68 177.66 10.36 178 9 C177.01 9.33 176.02 9.66 175 10 C172.793293 10.09216891 170.58382872 10.12193153 168.37519836 10.12025452 C167.36312065 10.12153854 167.36312065 10.12153854 166.33059692 10.12284851 C164.05801774 10.12450636 161.78551192 10.11897575 159.51293945 10.11352539 C157.86054327 10.11321913 156.20814697 10.11335242 154.55575085 10.11389065 C150.12418973 10.11411673 145.69265553 10.10831401 141.26110077 10.10128021 C137.10517795 10.09559217 132.94926174 10.09531747 128.79333496 10.09460449 C116.63305307 10.08935375 104.47277619 10.07539265 92.3125 10.0625 C65.149375 10.041875 37.98625 10.02125 10 10 C10 103.72 10 197.44 10 294 C14.62 294 19.24 294 24 294 C24 297.63 24 301.26 24 305 C19.71 305 15.42 305 11 305 C11 335.03 11 365.06 11 396 C10.67 396 10.34 396 10 396 C9.67 393.03 9.34 390.06 9 387 C6.23776722 389.76223278 6.42143709 392.20706617 6 396 C4.02 396 2.04 396 0 396 C0 365.97 0 335.94 0 305 C-21.58568347 305.11875979 -21.58568347 305.11875979 -43.17114258 305.27026367 C-45.87060187 305.27902277 -48.5700651 305.28666806 -51.26953125 305.29296875 C-51.97156174 305.30080887 -52.67359222 305.30864899 -53.39689636 305.31672668 C-55.46508978 305.33866816 -57.53253781 305.34171877 -59.60083008 305.34057617 C-61.34956169 305.35056892 -61.34956169 305.35056892 -63.13362122 305.36076355 C-66 305 -66 305 -67.88041687 303.67012024 C-69.60390527 301.09913397 -69.31979864 299.00610719 -69 296 C-68.34 295.34 -67.68 294.68 -67 294 C-44.89 294 -22.78 294 0 294 C0 196.98 0 99.96 0 0 Z " fill="#1A1F20" transform="translate(382,196)"/>
<path d="M0 0 C21.78 0 43.56 0 66 0 C66 32.01 66 64.02 66 97 C44.22 97 22.44 97 0 97 C0 64.99 0 32.98 0 0 Z " fill="#353C43" transform="translate(492,445)"/>
<path d="M0 0 C40.92 0 81.84 0 124 0 C124 15.51 124 31.02 124 47 C83.08 47 42.16 47 0 47 C0 31.49 0 15.98 0 0 Z " fill="#5F676D" transform="translate(492,605)"/>
<path d="M0 0 C8.44308997 5.33804123 13.90695183 11.47102774 16.49609375 21.19140625 C18.44784164 32.06975301 17.03387067 41.31817092 11.3125 50.6875 C5.44556359 58.9212934 -2.18787607 62.89229862 -12 65 C-22.65055753 66.10735937 -31.43943506 64.47262227 -40 58 C-40.66 57.34 -41.32 56.68 -42 56 C-42.33 112.76 -42.66 169.52 -43 228 C-48 229 -48 229 -50 228 C-50 228.66 -50 229.32 -50 230 C-50.66 230 -51.32 230 -52 230 C-53.67175306 226.65649388 -53.13256781 222.89379142 -53.12025452 219.21762085 C-53.12110894 218.29711272 -53.12196337 217.37660459 -53.12284368 216.42820227 C-53.12449876 213.32499954 -53.11897663 210.22185014 -53.11352539 207.11865234 C-53.1132435 204.90163677 -53.11340129 202.68462111 -53.1139679 200.46760559 C-53.11425579 194.4327844 -53.1083603 188.39798293 -53.10139394 182.36316633 C-53.09515912 176.06239388 -53.0945565 169.76162101 -53.09336853 163.46084595 C-53.09060967 152.88014388 -53.0843558 142.2994483 -53.07543945 131.71875 C-53.06626406 120.81933631 -53.05918385 109.91992459 -53.05493164 99.02050781 C-53.05466892 98.34895925 -53.05440619 97.6774107 -53.05413551 96.98551218 C-53.0528305 93.61663743 -53.05156678 90.24776267 -53.05032361 86.87888789 C-53.03986007 58.91925353 -53.02226135 30.95962728 -53 3 C-52.23879349 3.08546585 -51.47758698 3.1709317 -50.6933136 3.25898743 C-49.20023933 3.41369759 -49.20023933 3.41369759 -47.67700195 3.5715332 C-46.19487968 3.73066948 -46.19487968 3.73066948 -44.68281555 3.89302063 C-41.32088297 4.02708032 -39.74908343 3.34488881 -37.1875 1.1875 C-27.1022441 -7.02505848 -11.06177184 -5.96038419 0 0 Z " fill="#1A2026" transform="translate(697,366)"/>
<path d="M0 0 C40.92 0 81.84 0 124 0 C124 15.18 124 30.36 124 46 C83.08 46 42.16 46 0 46 C0 30.82 0 15.64 0 0 Z " fill="#F9F7EB" transform="translate(492,663)"/>
<path d="M0 0 C13.53 0 27.06 0 41 0 C41 34.32 41 68.64 41 104 C27.47 104 13.94 104 0 104 C0 69.68 0 35.36 0 0 Z " fill="#676F74" transform="translate(392,605)"/>
<path d="M0 0 C31.68 0 63.36 0 96 0 C96 14.52 96 29.04 96 44 C64.32 44 32.64 44 0 44 C0 29.48 0 14.96 0 0 Z " fill="#F7F6EB" transform="translate(492,390)"/>
<path d="M0 0 C31.35 0 62.7 0 95 0 C95 13.53 95 27.06 95 41 C63.65 41 32.3 41 0 41 C0 27.47 0 13.94 0 0 Z " fill="#FBF8ED" transform="translate(493,553)"/>
<path d="M0 0 C6.6 0 13.2 0 20 0 C20 0.66 20 1.32 20 2 C20.66 2 21.32 2 22 2 C22 1.34 22 0.68 22 0 C45.76 0 69.52 0 94 0 C94 3.63 94 7.26 94 11 C80.8 11 67.6 11 54 11 C54 26.51 54 42.02 54 58 C67.2 58 80.4 58 94 58 C94 61.63 94 65.26 94 69 C80.8 69 67.6 69 54 69 C54 83.85 54 98.7 54 114 C52 113 52 113 51 112 C50.34 112 49.68 112 49 112 C48.87625 112.804375 48.7525 113.60875 48.625 114.4375 C48.41875 115.283125 48.2125 116.12875 48 117 C47.01 117.495 47.01 117.495 46 118 C46 116.68 46 115.36 46 114 C45.01 113.505 45.01 113.505 44 113 C44 98.48 44 83.96 44 69 C39.05 69 34.1 69 29 69 C29 75.27 29 81.54 29 88 C25.7 88 22.4 88 19 88 C19 78.66666667 19 69.33333333 19 60 C13.06 59.67 7.12 59.34 1 59 C1 58.67 1 58.34 1 58 C6.94 58 12.88 58 19 58 C19 49.09 19 40.18 19 31 C22.3 31 25.6 31 29 31 C29 39.91 29 48.82 29 58 C33.95 58 38.9 58 44 58 C44 42.49 44 26.98 44 11 C29.15 11 14.3 11 -1 11 C-0.34 10.67 0.32 10.34 1 10 C0.67 6.7 0.34 3.4 0 0 Z " fill="#171D20" transform="translate(625,594)"/>
<path d="M0 0 C21.78 0 43.56 0 66 0 C66 13.53 66 27.06 66 41 C44.22 41 22.44 41 0 41 C0 27.47 0 13.94 0 0 Z " fill="#687075" transform="translate(492,338)"/>
<path d="M0 0 C0.33 0 0.66 0 1 0 C1.04573883 50.26959539 1.08099955 100.53918868 1.10213066 150.80880078 C1.10463219 156.73833792 1.10722082 162.66787503 1.10986328 168.59741211 C1.1103879 169.77791801 1.11091252 170.95842392 1.11145304 172.17470273 C1.1201649 191.31036743 1.13593916 210.44602017 1.15430559 229.58167777 C1.17298293 249.20435684 1.18411213 268.82702963 1.18817699 288.44971722 C1.19092655 300.56614281 1.19962292 312.68253457 1.21583293 324.79894974 C1.22637311 333.09815808 1.22960739 341.39734884 1.22700275 349.6965634 C1.22571682 354.49076411 1.22774173 359.28490556 1.23841095 364.07909584 C1.24809616 368.46293634 1.24866592 372.84667735 1.24179779 377.2305223 C1.24094811 378.82141506 1.24352515 380.41231386 1.24976636 382.00319461 C1.25772593 384.15625189 1.25350735 386.30894414 1.24609566 388.46199512 C1.2468551 389.66077221 1.24761454 390.85954929 1.24839699 392.09465295 C1 395 1 395 -1 398 C-2.32 398 -3.64 398 -5 398 C-5 396.68 -5 395.36 -5 394 C-7.5 395 -7.5 395 -9 399 C-9.33 364.68 -9.66 330.36 -10 295 C-21.55 294.67 -33.1 294.34 -45 294 C-44.34 293.67 -43.68 293.34 -43 293 C-42.34227572 289.97065509 -42.34227572 289.97065509 -42 287 C-44.97 286.67 -47.94 286.34 -51 286 C-51 285.01 -51 284.02 -51 283 C-37.14 283.33 -23.28 283.66 -9 284 C-9.01740234 276.37390625 -9.01740234 276.37390625 -9.03515625 268.59375 C-9.04739676 261.5625025 -9.05594996 254.53125501 -9.0625 247.5 C-9.06335602 246.58769875 -9.06421204 245.67539749 -9.06509399 244.73545074 C-9.08821873 216.77818469 -8.92296995 188.82912239 -8.5 160.875 C-8.48206327 159.68884598 -8.48206327 159.68884598 -8.46376419 158.47872925 C-8.31930992 148.9856462 -8.16519055 139.49274681 -8 130 C-7.67 130 -7.34 130 -7 130 C-6.67 170.59 -6.34 211.18 -6 253 C-5.01 251.68 -4.02 250.36 -3 249 C-2.34 249 -1.68 249 -1 249 C-0.73324475 213.27433685 -0.73324475 213.27433685 -1.5 177.5625 C-2.02303328 164.18544455 -2.11365576 150.82357907 -2.125 137.4375 C-2.12749756 136.43937286 -2.12999512 135.44124573 -2.13256836 134.41287231 C-2.13862031 131.48224665 -2.13690359 128.5517213 -2.1328125 125.62109375 C-2.13479645 124.79157196 -2.1367804 123.96205017 -2.13882446 123.10739136 C-2.11464975 116.44745401 -1.82127159 109.80951916 -1.51147461 103.15820312 C-0.98587943 91.72042767 -0.78531439 80.29599143 -0.68359375 68.84765625 C-0.6629343 66.84028282 -0.64193617 64.83291284 -0.62062073 62.82554626 C-0.56632525 57.62925076 -0.51652195 52.43292237 -0.46777344 47.23657227 C-0.41686725 41.89922274 -0.36154804 36.56191897 -0.30664062 31.22460938 C-0.20019706 20.81644563 -0.0985165 10.40824159 0 0 Z " fill="#181E21" transform="translate(442,310)"/>
<path d="M0 0 C8.63756234 4.65415403 15.00677291 10.62370863 18.27734375 19.953125 C21.02792488 30.27959246 20.23926262 40.28489477 15.2109375 49.66796875 C9.94499726 58.29148397 3.30379402 62.73365326 -6.31640625 65.63671875 C-16.41181141 67.80527059 -26.21708523 66.88518621 -34.97265625 61.265625 C-37.53515625 59.328125 -37.53515625 59.328125 -39.53515625 57.328125 C-39.86515625 113.758125 -40.19515625 170.188125 -40.53515625 228.328125 C-41.19515625 227.998125 -41.85515625 227.668125 -42.53515625 227.328125 C-42.53515625 170.568125 -42.53515625 113.808125 -42.53515625 55.328125 C-43.19515625 55.328125 -43.85515625 55.328125 -44.53515625 55.328125 C-44.53515625 54.668125 -44.53515625 54.008125 -44.53515625 53.328125 C-45.52515625 53.328125 -46.51515625 53.328125 -47.53515625 53.328125 C-47.53331266 54.18087918 -47.53146908 55.03363337 -47.52956963 55.91222858 C-47.48543882 76.64275125 -47.4523232 97.37326585 -47.43153191 118.10382557 C-47.42121066 128.12888588 -47.40713416 138.15391487 -47.38427734 148.17895508 C-47.36436939 156.91476658 -47.35144599 165.6505554 -47.34697926 174.38638896 C-47.34436747 179.0137584 -47.33821109 183.64106295 -47.32369614 188.26841164 C-47.31015319 192.62101945 -47.30592692 196.97353546 -47.30894089 201.32616234 C-47.30838925 202.92617669 -47.30439226 204.52619401 -47.2967453 206.12619019 C-47.28683537 208.3060272 -47.28917272 210.48551486 -47.29464722 212.6653595 C-47.29280363 213.8867352 -47.29096004 215.1081109 -47.28906059 216.36649799 C-47.53515625 219.328125 -47.53515625 219.328125 -49.53515625 222.328125 C-49.65187776 198.79780097 -49.74008964 175.26752024 -49.79421711 151.73696518 C-49.82001573 140.81168703 -49.855198 129.88658859 -49.91235352 118.96142578 C-49.96213764 109.44076395 -49.99443519 99.92023224 -50.00559872 90.39944386 C-50.01212593 85.35663451 -50.02750116 80.31419747 -50.06380653 75.27150726 C-50.09768715 70.52727151 -50.10822529 65.78356224 -50.10069466 61.039217 C-50.10207276 59.29608107 -50.11205257 57.55292795 -50.13118362 55.80989647 C-50.155999 53.43281437 -50.15010536 51.05772964 -50.13642883 48.68060303 C-50.15099304 47.98799275 -50.16555725 47.29538248 -50.18056279 46.58178401 C-50.12285593 42.88087433 -49.75728176 41.55457321 -47.12257671 38.86859512 C-44.53515625 37.328125 -44.53515625 37.328125 -42.53515625 37.328125 C-43.03015625 35.843125 -43.03015625 35.843125 -43.53515625 34.328125 C-43.1953125 32.06640625 -43.1953125 32.06640625 -42.59765625 29.640625 C-42.40300781 28.83238281 -42.20835937 28.02414062 -42.0078125 27.19140625 C-41.77384766 26.26908203 -41.77384766 26.26908203 -41.53515625 25.328125 C-41.20515625 25.328125 -40.87515625 25.328125 -40.53515625 25.328125 C-40.46039062 26.30652344 -40.385625 27.28492188 -40.30859375 28.29296875 C-39.49618291 36.39318271 -38.67178775 43.43339391 -32.53515625 49.328125 C-25.73846202 54.44378632 -18.84984041 55.37176122 -10.53515625 54.328125 C-4.93532801 53.11560021 -1.26662216 50.6815019 2.46484375 46.328125 C3.57859375 45.0596875 3.57859375 45.0596875 4.71484375 43.765625 C8.56650349 38.40081322 8.02851656 31.68374019 7.46484375 25.328125 C5.90979718 19.36546234 2.48209323 16.05610773 -2.4375 12.5546875 C-10.70318738 7.72149227 -20.36832603 8.62266822 -29.53515625 10.328125 C-30.72979304 6.74421462 -30.50876267 5.24894425 -29.28515625 1.578125 C-24.84100311 -6.67530227 -7.33119804 -3.13091766 0 0 Z " fill="#1C2023" transform="translate(694.53515625,364.671875)"/>
<path d="M0 0 C6.6 0 13.2 0 20 0 C20 32.34 20 64.68 20 98 C13.4 98 6.8 98 0 98 C0 65.66 0 33.32 0 0 Z " fill="#D2D4CD" transform="translate(568,445)"/>
<path d="M0 0 C3.3 0 6.6 0 10 0 C9.83734146 0.84152304 9.67468292 1.68304607 9.50709534 2.55006981 C8.97696116 6.15674052 8.88001493 9.55403477 8.88647461 13.19888306 C8.88632575 13.901398 8.88617689 14.60391295 8.88602352 15.32771623 C8.88671536 17.67114524 8.89454661 20.01449485 8.90234375 22.35791016 C8.90426436 24.04420426 8.90572748 25.73049894 8.9067688 27.41679382 C8.90992868 31.04910971 8.91619729 34.68140231 8.92483521 38.31370926 C8.93843022 44.09572418 8.94426965 49.87773148 8.94897461 55.65975952 C8.96100837 69.01726118 8.98283532 82.37474341 9.00520325 95.73223114 C9.02554017 107.90081981 9.04361164 120.06940081 9.05341816 132.23800313 C9.05751644 137.02449087 9.0636723 141.81095504 9.07516479 146.59743118 C9.11815862 164.76416307 9.10588254 182.9274781 8.67733574 201.09021449 C8.64015605 202.68421122 8.60594123 204.27828016 8.57484627 205.8724072 C8.53063548 208.0510272 8.47343671 210.22888449 8.41186523 212.40707397 C8.36533058 214.25246545 8.36533058 214.25246545 8.31785583 216.13513756 C8 219 8 219 6 221 C5.67 218.69 5.34 216.38 5 214 C3.02 214.99 3.02 214.99 1 216 C1 231.51 1 247.02 1 263 C0.67 263 0.34 263 0 263 C0 176.21 0 89.42 0 0 Z " fill="#1C2024" transform="translate(616,330)"/>
<path d="M0 0 C4.98184615 3.59449659 8.25088537 7.70119259 10.16015625 13.55859375 C11.0944807 22.46501124 10.07077504 28.43521713 4.91015625 35.74609375 C-0.68404638 41.46743735 -6.54904107 43.66207545 -14.46484375 43.93359375 C-21.75950984 43.84463441 -27.52567031 41.90714658 -32.72265625 36.65625 C-38.3725383 29.54613273 -39.83659964 22.52939674 -38.83984375 13.55859375 C-37.03012459 6.98404438 -32.45198911 2.25342254 -26.83984375 -1.44140625 C-17.88866538 -5.08773095 -8.40566784 -4.82471666 0 0 Z " fill="#565F63" transform="translate(692.83984375,376.44140625)"/>
<path d="M0 0 C12.21 0 24.42 0 37 0 C37 16.17 37 32.34 37 49 C24.79 49 12.58 49 0 49 C0 32.83 0 16.66 0 0 Z " fill="#FAF9EC" transform="translate(444,720)"/>
<path d="M0 0 C14.19 0 28.38 0 43 0 C43 15.51 43 31.02 43 47 C38.05 47 33.1 47 28 47 C28 38.09 28 29.18 28 20 C24.7 20 21.4 20 18 20 C18 28.91 18 37.82 18 47 C12.06 47 6.12 47 0 47 C0 31.49 0 15.98 0 0 Z " fill="#656D72" transform="translate(626,605)"/>
<path d="M0 0 C5.61 0 11.22 0 17 0 C17 6.27 17 12.54 17 19 C20.3 19 23.6 19 27 19 C27 12.73 27 6.46 27 0 C31.95 0 36.9 0 42 0 C42 15.18 42 30.36 42 46 C37.05 46 32.1 46 27 46 C27 43.03 27 40.06 27 37 C23.7 37 20.4 37 17 37 C17 39.97 17 42.94 17 46 C11.39 46 5.78 46 0 46 C0 30.82 0 15.64 0 0 Z " fill="#B2A589" transform="translate(627,663)"/>
<path d="M0 0 C8.8790625 -0.0309375 8.8790625 -0.0309375 17.9375 -0.0625 C19.80784912 -0.071604 21.67819824 -0.08070801 23.60522461 -0.09008789 C25.07926359 -0.09300709 26.55330337 -0.09555564 28.02734375 -0.09765625 C28.79953247 -0.10277222 29.57172119 -0.10788818 30.36730957 -0.11315918 C32.24525187 -0.11346974 34.12309253 -0.06233569 36 0 C37.7329298 1.7329298 37.12820046 3.96214336 37.13894653 6.27148438 C37.1369223 7.00689453 37.13489807 7.74230469 37.1328125 8.5 C37.13376923 9.25087891 37.13472595 10.00175781 37.13571167 10.77539062 C37.13639338 12.36588627 37.13453972 13.95638467 37.13037109 15.546875 C37.12502267 17.98964655 37.13031634 20.43223421 37.13671875 22.875 C37.13605797 24.41666707 37.1347768 25.95833403 37.1328125 27.5 C37.13483673 28.23541016 37.13686096 28.97082031 37.13894653 29.72851562 C37.11495161 34.88504839 37.11495161 34.88504839 36 36 C33.3339846 36.08854347 30.69330601 36.115319 28.02734375 36.09765625 C27.32065552 36.09664917 26.61396729 36.09564209 25.88586426 36.09460449 C23.23639309 36.08935745 20.58694498 36.07539629 17.9375 36.0625 C12.018125 36.041875 6.09875 36.02125 0 36 C0 24.12 0 12.24 0 0 Z " fill="#333B40" transform="translate(444,262)"/>
<path d="M0 0 C1.051875 0.66 2.10375 1.32 3.1875 2 C3.1875 5.64023748 2.57082182 6.01085001 0.1171875 8.546875 C-0.85734375 9.5678125 -0.85734375 9.5678125 -1.8515625 10.609375 C-2.53992188 11.31578125 -3.22828125 12.0221875 -3.9375 12.75 C-5.27489067 14.13922752 -6.61084353 15.52984071 -7.9453125 16.921875 C-8.59894775 17.6022583 -9.25258301 18.2826416 -9.92602539 18.98364258 C-11.70095568 20.88077591 -13.39327076 22.82166337 -15.06640625 24.80859375 C-17.10007252 27.21782229 -19.15653471 29.33438447 -21.625 31.3125 C-24.13215465 33.31386998 -24.13215465 33.31386998 -25.8125 36 C-26.4725 36 -27.1325 36 -27.8125 36 C-27.8125 36.66 -27.8125 37.32 -27.8125 38 C-31.4827064 36.77659787 -32.11175941 35.16295121 -33.9453125 31.88671875 C-36.6276366 26.05085146 -36.87858138 18.91122849 -35.19921875 12.75 C-32.40550098 6.44875111 -27.32532703 1.43968321 -20.953125 -1.171875 C-14.04833815 -2.99254019 -6.48034772 -3.25750099 0 0 Z " fill="#B3A589" transform="translate(689.8125,375)"/>
<path d="M0 0 C-0.5259375 1.5778125 -0.5259375 1.5778125 -1.0625 3.1875 C-1.94970527 6.7954681 -2.05262882 8.52632489 -1 12 C-1.45890625 12.3403125 -1.9178125 12.680625 -2.390625 13.03125 C-7.23771514 16.86004389 -9.55794327 20.33442839 -12 26 C-12.66 26 -13.32 26 -14 26 C-14.02126953 27.22976563 -14.02126953 27.22976563 -14.04296875 28.484375 C-14.43595041 37.36363636 -14.43595041 37.36363636 -17.4375 40.75 C-20 42 -20 42 -22 42 C-22 104.04 -22 166.08 -22 230 C-22.33 230 -22.66 230 -23 230 C-23 155.75 -23 81.5 -23 5 C-19.37 5.33 -15.74 5.66 -12 6 C-9.05524275 4.95361351 -9.05524275 4.95361351 -7 3.0625 C-3.20501139 0 -3.20501139 0 0 0 Z " fill="#2C3032" transform="translate(667,364)"/>
<path d="M0 0 C0.33 0 0.66 0 1 0 C1.07476563 0.97839844 1.14953125 1.95679688 1.2265625 2.96484375 C1.98909542 10.56774555 2.71699116 16.04037779 7.66015625 22.16796875 C9.51570647 24.70514967 10 26.88958883 10 30 C7.09399739 31.25664978 5.20395416 32 2 32 C1.67 88.43 1.34 144.86 1 203 C0.34 202.67 -0.32 202.34 -1 202 C-1 145.24 -1 88.48 -1 30 C-1.66 30 -2.32 30 -3 30 C-3 29.34 -3 28.68 -3 28 C-3.99 28 -4.98 28 -6 28 C-5.99815641 28.85275418 -5.99631283 29.70550837 -5.99441338 30.58410358 C-5.95028257 51.31462625 -5.91716695 72.04514085 -5.89637566 92.77570057 C-5.88605441 102.80076088 -5.87197791 112.82578987 -5.84912109 122.85083008 C-5.82921314 131.58664158 -5.81628974 140.3224304 -5.81182301 149.05826396 C-5.80921122 153.6856334 -5.80305484 158.31293795 -5.78853989 162.94028664 C-5.77499694 167.29289445 -5.77077067 171.64541046 -5.77378464 175.99803734 C-5.773233 177.59805169 -5.76923601 179.19806901 -5.76158905 180.79806519 C-5.75167912 182.9779022 -5.75401647 185.15738986 -5.75949097 187.3372345 C-5.75764738 188.5586102 -5.75580379 189.7799859 -5.75390434 191.03837299 C-6 194 -6 194 -8 197 C-8.11672151 173.46967597 -8.20493339 149.93939524 -8.25906086 126.40884018 C-8.28485948 115.48356203 -8.32004175 104.55846359 -8.37719727 93.63330078 C-8.42698139 84.11263895 -8.45927894 74.59210724 -8.47044247 65.07131886 C-8.47696968 60.02850951 -8.49234491 54.98607247 -8.52865028 49.94338226 C-8.5625309 45.19914651 -8.57306904 40.45543724 -8.56553841 35.711092 C-8.56691651 33.96795607 -8.57689632 32.22480295 -8.59602737 30.48177147 C-8.62084275 28.10468937 -8.61494911 25.72960464 -8.60127258 23.35247803 C-8.61583679 22.65986775 -8.630401 21.96725748 -8.64540654 21.25365901 C-8.58769968 17.55274933 -8.22212551 16.22644821 -5.58742046 13.54047012 C-3 12 -3 12 -1 12 C-1.33 11.01 -1.66 10.02 -2 9 C-1.66015625 6.73828125 -1.66015625 6.73828125 -1.0625 4.3125 C-0.86785156 3.50425781 -0.67320312 2.69601562 -0.47265625 1.86328125 C-0.23869141 0.94095703 -0.23869141 0.94095703 0 0 Z " fill="#121618" transform="translate(653,390)"/>
<path d="M0 0 C3.96 0 7.92 0 12 0 C12 15.18 12 30.36 12 46 C7.71 46 3.42 46 -1 46 C-1.024644 39.60962203 -1.04283317 33.21927148 -1.05493164 26.82885742 C-1.05997308 24.65307127 -1.06680607 22.47728853 -1.07543945 20.30151367 C-1.08751338 17.18146933 -1.09323005 14.06146962 -1.09765625 10.94140625 C-1.10281754 9.96224747 -1.10797882 8.98308868 -1.11329651 7.97425842 C-1.11337204 7.07340012 -1.11344757 6.17254181 -1.11352539 5.24438477 C-1.115746 4.44718521 -1.11796661 3.64998566 -1.12025452 2.82862854 C-1 1 -1 1 0 0 Z " fill="#3A4047" transform="translate(370,663)"/>
<path d="M0 0 C3.3 0 6.6 0 10 0 C10 19.14 10 38.28 10 58 C6.7 58 3.4 58 0 58 C0 38.86 0 19.72 0 0 Z " fill="#1F2428" transform="translate(644,291)"/>
<path d="M0 0 C3.3 0 6.6 0 10 0 C10 18.81 10 37.62 10 57 C6.7 57 3.4 57 0 57 C0 38.19 0 19.38 0 0 Z " fill="#1E2426" transform="translate(588,254)"/>
<path d="M0 0 C3.96 0 7.92 0 12 0 C12 15.51 12 31.02 12 47 C8.04 47 4.08 47 0 47 C0 31.49 0 15.98 0 0 Z " fill="#3F444A" transform="translate(370,605)"/>
<path d="M0 0 C3.43615111 2.12017834 5.80717883 4.09622164 7 8 C7.46612801 12.81665605 7.52190197 15.01211413 5.25 19.3125 C2.53217213 22.5587944 0.65164858 24.72677646 -3.62109375 25.43359375 C-11.22276029 25.44413698 -11.22276029 25.44413698 -15.0625 23.25 C-18.68301444 19.04553162 -19.45609526 15.70662004 -19.3125 10.25 C-18.81407003 6.66130423 -17.4031417 4.65610399 -15 2 C-10.08715913 -1.54181551 -5.672626 -1.54898275 0 0 Z " fill="#1D2324" transform="translate(529,226)"/>
<path d="M0 0 C0.33 0 0.66 0 1 0 C1 130.35 1 260.7 1 395 C0.67 395 0.34 395 0 395 C-0.89197392 372.21959156 -1.12692481 349.47903145 -1.06846237 326.68318748 C-1.05823122 322.1325871 -1.05492436 317.58198153 -1.05102539 313.03137207 C-1.03915428 300.54963702 -1.01708571 288.06792455 -0.99479675 275.58620453 C-0.97442323 264.1161221 -0.95640943 252.64604745 -0.94658184 241.17595053 C-0.94249117 236.68508261 -0.9363525 232.19423989 -0.92483521 227.7033844 C-0.87495348 208.07735862 -1.04416167 188.49550213 -1.77047729 168.88160706 C-2.11491256 159.36959396 -2.15115641 149.85883014 -2.13037109 140.34155273 C-2.12493338 137.40147902 -2.13042154 134.46155407 -2.13671875 131.52148438 C-2.13605861 129.55468718 -2.13477879 127.58789007 -2.1328125 125.62109375 C-2.13483673 124.79024765 -2.13686096 123.95940155 -2.13894653 123.1033783 C-2.11442595 116.44478684 -1.82120924 109.80818054 -1.51147461 103.15820312 C-0.98587943 91.72042767 -0.78531439 80.29599143 -0.68359375 68.84765625 C-0.6629343 66.84028282 -0.64193617 64.83291284 -0.62062073 62.82554626 C-0.56632525 57.62925076 -0.51652195 52.43292237 -0.46777344 47.23657227 C-0.41686725 41.89922274 -0.36154804 36.56191897 -0.30664062 31.22460938 C-0.20019706 20.81644563 -0.0985165 10.40824159 0 0 Z " fill="#101812" transform="translate(442,310)"/>
<path d="M0 0 C0.92607559 -0.00570007 1.85215118 -0.01140015 2.80628967 -0.01727295 C4.76920422 -0.02673751 6.73213476 -0.03326269 8.69506836 -0.03710938 C11.70649748 -0.04682288 14.71724665 -0.07783565 17.72851562 -0.109375 C19.63150634 -0.11590385 21.53450197 -0.12115479 23.4375 -0.125 C24.34273911 -0.1373468 25.24797821 -0.1496936 26.1806488 -0.16241455 C27.01814163 -0.15941345 27.85563446 -0.15641235 28.71850586 -0.15332031 C29.82650795 -0.15878876 29.82650795 -0.15878876 30.95689392 -0.16436768 C32.78515625 0.203125 32.78515625 0.203125 34.78515625 3.203125 C34.59765625 5.765625 34.59765625 5.765625 33.78515625 8.203125 C29.88891609 10.80061844 26.58715004 10.50888129 22.06640625 10.50390625 C21.21212036 10.50819138 20.35783447 10.5124765 19.47766113 10.51689148 C17.67212816 10.52263246 15.86657205 10.52313674 14.06103516 10.51879883 C11.29549852 10.51563682 8.53102951 10.53910727 5.765625 10.56445312 C4.0117201 10.5667259 2.25781232 10.56742971 0.50390625 10.56640625 C-0.32427612 10.575616 -1.1524585 10.58482574 -2.0057373 10.59431458 C-7.75858774 10.54783213 -7.75858774 10.54783213 -9.97253418 8.87516785 C-11.21484375 7.203125 -11.21484375 7.203125 -10.96484375 4.078125 C-9.47128295 -1.64719139 -5.09855261 0.02388306 0 0 Z " fill="#5A6467" transform="translate(323.21484375,555.796875)"/>
<path d="M0 0 C0.87789688 -0.00570007 1.75579376 -0.01140015 2.66029358 -0.01727295 C4.5188781 -0.02672651 6.37747941 -0.03325834 8.23608398 -0.03710938 C11.08281564 -0.04682435 13.92882823 -0.07784779 16.77539062 -0.109375 C18.57942279 -0.11590406 20.38346012 -0.12115491 22.1875 -0.125 C23.04069321 -0.1373468 23.89388641 -0.1496936 24.77293396 -0.16241455 C30.71772411 -0.13994909 30.71772411 -0.13994909 32.91676331 1.56524658 C34.16015625 3.203125 34.16015625 3.203125 34.03515625 5.765625 C33.16015625 8.203125 33.16015625 8.203125 30.16015625 10.203125 C27.20994254 10.39944784 24.35638109 10.48311691 21.40625 10.46875 C20.54959244 10.47066345 19.69293488 10.4725769 18.81031799 10.47454834 C17.00057684 10.47590873 15.19082589 10.47222247 13.38110352 10.46386719 C10.60475876 10.45315241 7.82905915 10.46377404 5.05273438 10.4765625 C3.29557148 10.47524114 1.53840899 10.47267922 -0.21875 10.46875 C-1.05209366 10.47279846 -1.88543732 10.47684692 -2.74403381 10.48101807 C-8.60991644 10.43305231 -8.60991644 10.43305231 -10.83984375 8.203125 C-10.96484375 4.578125 -10.96484375 4.578125 -10.83984375 1.203125 C-7.48226493 -0.47566441 -3.69351277 0.01835437 0 0 Z " fill="#545E61" transform="translate(323.83984375,522.796875)"/>
<path d="M0 0 C1.36560059 0.00303635 1.36560059 0.00303635 2.75878906 0.00613403 C3.68723633 0.00517731 4.61568359 0.00422058 5.57226562 0.00323486 C7.53938871 0.00255298 9.50651403 0.00440781 11.47363281 0.00857544 C14.49581932 0.01392358 17.51785721 0.00863071 20.54003906 0.00222778 C22.44628939 0.00288856 24.35253963 0.00416972 26.25878906 0.00613403 C27.16918945 0.0041098 28.07958984 0.00208557 29.01757812 0 C35.39383938 0.02399685 35.39383938 0.02399685 36.50878906 1.13894653 C36.69628906 4.07644653 36.69628906 4.07644653 36.50878906 7.13894653 C33.82250505 9.82523054 31.73465435 9.3997342 28.08239746 9.44248962 C27.20216919 9.44157822 26.32194092 9.44066681 25.41503906 9.43972778 C24.51257446 9.44401291 23.61010986 9.44829803 22.68029785 9.45271301 C20.77043498 9.45846126 18.8605502 9.45895294 16.95068359 9.45462036 C14.02045573 9.45145912 11.09123582 9.47491752 8.16113281 9.50027466 C6.30826951 9.50254739 4.45540348 9.50325127 2.60253906 9.50222778 C1.28219666 9.5160424 1.28219666 9.5160424 -0.06481934 9.53013611 C-2.53222656 9.51126099 -2.53222656 9.51126099 -6.49121094 9.13894653 C-8.49121094 6.13894653 -8.49121094 6.13894653 -8.17871094 3.51394653 C-6.84840012 -1.08167265 -4.38997931 0.01652154 0 0 Z " fill="#4A5456" transform="translate(320.4912109375,458.8610534667969)"/>
<path d="M0 0 C13.2 0 26.4 0 40 0 C40 3.63 40 7.26 40 11 C38.76846191 10.99476318 37.53692383 10.98952637 36.26806641 10.98413086 C31.70964278 10.96606447 27.15122233 10.95456196 22.59277344 10.94506836 C20.61783313 10.9400319 18.64289657 10.93320249 16.66796875 10.92456055 C13.83332395 10.91246492 10.99872834 10.9067649 8.1640625 10.90234375 C7.27756012 10.89718246 6.39105774 10.89202118 5.47769165 10.88670349 C1.10228761 10.74597908 1.10228761 10.74597908 -3 12 C-2.67 11.01 -2.34 10.02 -2 9 C-1.34 8.67 -0.68 8.34 0 8 C-0.66 7.34 -1.32 6.68 -2 6 C-0.02 4.68 1.96 3.36 4 2 C2.68 1.34 1.36 0.68 0 0 Z " fill="#1E262A" transform="translate(679,652)"/>
<path d="M0 0 C2.31 0.33 4.62 0.66 7 1 C7.33 1.99 7.66 2.98 8 4 C9.32 3.67 10.64 3.34 12 3 C14.47793527 6.71690291 14.68144261 10.68696688 14 15 C11.97898053 18.82550114 9.87100717 21.95064326 6 24 C2.75 24.1875 2.75 24.1875 0 24 C-0.33 23.01 -0.66 22.02 -1 21 C1 19 3 17 5 15 C4.34 15 3.68 15 3 15 C3 13.02 3 11.04 3 9 C-0.47140452 9.76429774 -0.47140452 9.76429774 -2 14 C-2 10.04 -2 6.08 -2 2 C-1.34 2 -0.68 2 0 2 C0 1.34 0 0.68 0 0 Z " fill="#181D1F" transform="translate(522,227)"/>
<path d="M0 0 C0.69931641 -0.01224609 1.39863281 -0.02449219 2.11914062 -0.03710938 C6.53311655 -0.04949659 10.08881584 0.55960817 14.1875 2.1875 C13.5275 3.5075 12.8675 4.8275 12.1875 6.1875 C12.8475 6.8475 13.5075 7.5075 14.1875 8.1875 C11.8775 8.5175 9.5675 8.8475 7.1875 9.1875 C7.1875 9.5175 7.1875 9.8475 7.1875 10.1875 C6.49785156 10.23648437 5.80820312 10.28546875 5.09765625 10.3359375 C-1.04659469 10.82478051 -6.8274077 11.71575599 -12.8125 13.1875 C-14.00713679 9.60358962 -13.78610642 8.10831925 -12.5625 4.4375 C-9.68679267 -0.90309932 -5.49317851 0.00498022 0 0 Z " fill="#191E20" transform="translate(677.8125,361.8125)"/>
<path d="M0 0 C4.10703441 0.85563217 5.55401113 2.24378009 8 5.625 C8.625 9.125 8.625 9.125 8 12.625 C5.55401113 16.00621991 4.10703441 17.39436783 0 18.25 C-4.10703441 17.39436783 -5.55401113 16.00621991 -8 12.625 C-8.625 9.125 -8.625 9.125 -8 5.625 C-5.55401113 2.24378009 -4.10703441 0.85563217 0 0 Z " fill="#232727" transform="translate(518,789.375)"/>
<path d="M0 0 C3.5 0.625 3.5 0.625 6.5 2.6875 C8.5 5.625 8.5 5.625 8.5625 9.1875 C7.4058033 12.92975404 6.76473709 14.47714665 3.5 16.625 C0.0625 17.1875 0.0625 17.1875 -3.5 16.625 C-6.88121991 14.17901113 -8.26936783 12.73203441 -9.125 8.625 C-8.00794016 3.26311277 -5.32967295 0.95172731 0 0 Z " fill="#202325" transform="translate(554.5,826.375)"/>
<path d="M0 0 C2.4375 1.6875 2.4375 1.6875 4 4 C4.63069292 7.70532093 4.2431765 9.51364699 2.5625 12.875 C-0.7146649 15.59264895 -2.74184183 15.524562 -6.87890625 15.46875 C-9.4907927 14.89153752 -10.38951789 14.11130276 -12 12 C-12.9375 8.625 -12.9375 8.625 -13 5 C-9.25333712 -0.9429825 -6.7508412 -1.51311958 0 0 Z " fill="#1F2326" transform="translate(559,791)"/>
<path d="M0 0 C1.90625 0.41015625 1.90625 0.41015625 4.40625 1.91015625 C6.51761591 5.42909943 6.84862143 8.41122356 5.90625 12.41015625 C3.32457046 15.4474263 1.78126007 16.28515481 -2.15625 16.84765625 C-5.54924727 16.34231623 -6.87391424 16.04107271 -9.09375 13.41015625 C-10.48733359 9.25637806 -10.55987435 6.3829375 -8.65625 2.41015625 C-5.57139282 0.00246284 -3.83028352 -0.278696 0 0 Z " fill="#212527" transform="translate(520.09375,826.58984375)"/>
<path d="M0 0 C3.3 0 6.6 0 10 0 C10 6.6 10 13.2 10 20 C6.7 20 3.4 20 0 20 C0 13.4 0 6.8 0 0 Z " fill="#1D1F22" transform="translate(616,291)"/>
<path d="M0 0 C6.27 0 12.54 0 19 0 C19 3.3 19 6.6 19 10 C16.02077407 10.02683987 13.04178705 10.04676037 10.0625 10.0625 C8.78729492 10.07506836 8.78729492 10.07506836 7.48632812 10.08789062 C6.67744141 10.09111328 5.86855469 10.09433594 5.03515625 10.09765625 C4.2862915 10.10289307 3.53742676 10.10812988 2.76586914 10.11352539 C1 10 1 10 0 9 C0 6.03 0 3.06 0 0 Z " fill="#282D2E" transform="translate(334,748)"/>
<path d="M0 0 C1.18580658 0.00444122 2.37161316 0.00888245 3.59335327 0.01345825 C4.24713455 0.0131662 4.90091583 0.01287415 5.57450867 0.01257324 C7.73896483 0.01396839 9.90307822 0.02953783 12.06747437 0.04519653 C13.56677055 0.04892602 15.06606916 0.05177329 16.56536865 0.05377197 C20.5142793 0.06141355 24.46304316 0.08106644 28.41189575 0.10317993 C32.44029759 0.12362713 36.46872311 0.13277127 40.49716187 0.14285278 C48.40347928 0.16431192 56.30967732 0.19845409 64.21591187 0.24050903 C64.21591187 0.57050903 64.21591187 0.90050903 64.21591187 1.24050903 C43.09591187 1.57050903 21.97591187 1.90050903 0.21591187 2.24050903 C0.87591187 2.90050903 1.53591187 3.56050903 2.21591187 4.24050903 C2.21591187 5.56050903 2.21591187 6.88050903 2.21591187 8.24050903 C4.88251244 9.57380932 6.96479929 9.40210362 9.95077515 9.4458313 C11.1518692 9.46577652 12.35296326 9.48572174 13.5904541 9.50627136 C14.89255829 9.52298386 16.19466248 9.53969635 17.53622437 9.55691528 C18.87858725 9.57748528 20.22094366 9.59848177 21.56329346 9.61988831 C25.09779624 9.67510434 28.63235744 9.72451562 32.16696167 9.7727356 C35.77317508 9.82295408 39.37930359 9.87863832 42.98544312 9.93386841 C50.06219235 10.04144421 57.13901771 10.14289045 64.21591187 10.24050903 C64.21591187 10.57050903 64.21591187 10.90050903 64.21591187 11.24050903 C55.66242416 11.30998298 47.10905411 11.3633068 38.55535412 11.39594555 C34.58362559 11.41160959 30.61208993 11.43286102 26.64047241 11.46682739 C22.80848098 11.499395 18.97667518 11.51735648 15.14455605 11.52514076 C13.68168528 11.53068899 12.2188248 11.54152328 10.75603294 11.5576992 C8.70882491 11.57943982 6.66238646 11.5824775 4.61508179 11.58108521 C2.86635017 11.59107796 2.86635017 11.59107796 1.08229065 11.60127258 C-1.78408813 11.24050903 -1.78408813 11.24050903 -3.664505 9.91062927 C-5.3879934 7.33964301 -5.10388677 5.24661622 -4.78408813 2.24050903 C-2.78408813 0.24050903 -2.78408813 0.24050903 0 0 Z " fill="#404545" transform="translate(317.7840881347656,489.7594909667969)"/>
<path d="M0 0 C2.86801846 0.08864784 3.78417611 0.16414857 6.125 1.9375 C7.48213883 5.46606096 7.04765877 7.76275116 6.0625 11.375 C4.375 13.375 4.375 13.375 2.0625 14.375 C-1.38016385 14.30474155 -3.22103249 13.97590824 -5.875 11.75 C-7.40612051 8.32749533 -6.8001304 5.95823398 -5.9375 2.375 C-3.9375 0.375 -3.9375 0.375 0 0 Z " fill="#232C2C" transform="translate(592.9375,217.625)"/>
<path d="M0 0 C0.33 0 0.66 0 1 0 C1 30.69 1 61.38 1 93 C5.95 92.67 10.9 92.34 16 92 C16.8562384 88.5750464 17.18646653 85.84918455 17.31640625 82.359375 C17.35830078 81.28945313 17.40019531 80.21953125 17.44335938 79.1171875 C17.48267578 78.00601563 17.52199219 76.89484375 17.5625 75.75 C17.60568359 74.62335938 17.64886719 73.49671875 17.69335938 72.3359375 C17.79932015 69.55741046 17.90139142 66.77879609 18 64 C18.33 64 18.66 64 19 64 C19 73.9 19 83.8 19 94 C12.73 94 6.46 94 0 94 C0 62.98 0 31.96 0 0 Z " fill="#E3E5E3" transform="translate(568,448)"/>
<path d="M0 0 C2.75059381 -0.08107646 5.49879021 -0.14052813 8.25 -0.1875 C9.02730469 -0.21263672 9.80460938 -0.23777344 10.60546875 -0.26367188 C11.35957031 -0.27333984 12.11367188 -0.28300781 12.890625 -0.29296875 C13.92751465 -0.31653442 13.92751465 -0.31653442 14.98535156 -0.34057617 C17 0 17 0 21 3 C14.73 3 8.46 3 2 3 C2 18.51 2 34.02 2 50 C1.67 50 1.34 50 1 50 C0.03525079 41.98665022 -0.34256926 33.96400721 -0.61254883 25.90332031 C-0.68785786 23.73971892 -0.77848595 21.57706835 -0.86914062 19.4140625 C-0.91761138 18.02086588 -0.96516976 16.62763715 -1.01171875 15.234375 C-1.05772217 13.98881836 -1.10372559 12.74326172 -1.15112305 11.45996094 C-0.99723375 7.93666665 -0.15796624 5.30399125 1 2 C0.67 1.34 0.34 0.68 0 0 Z " fill="#10120F" transform="translate(624,660)"/>
<path d="M0 0 C27.39 0 54.78 0 83 0 C83 0.33 83 0.66 83 1 C82.10241974 1.00586624 81.20483948 1.01173248 80.28005981 1.01777649 C71.8334383 1.07560901 63.3870839 1.14763082 54.94072151 1.23571491 C50.59803232 1.28049941 46.25543869 1.31973734 41.91259766 1.34643555 C37.72382072 1.37238845 33.53540998 1.41273291 29.34685898 1.46318626 C27.7464744 1.4799095 26.14602641 1.49138969 24.54556656 1.49761391 C22.30879299 1.50719628 20.07296789 1.53518217 17.83642578 1.56762695 C16.56179474 1.57873001 15.2871637 1.58983307 13.97390747 1.60127258 C12.99251801 1.73285263 12.01112854 1.86443268 11 2 C10.01 3.485 10.01 3.485 9 5 C6 6.125 6 6.125 3 7 C2.01 7.495 2.01 7.495 1 8 C0.67 5.36 0.34 2.72 0 0 Z " fill="#EBF5E7" transform="translate(493,553)"/>
<path d="M0 0 C0.33 0 0.66 0 1 0 C1 17.49 1 34.98 1 53 C-0.32 52.67 -1.64 52.34 -3 52 C-2.01 52 -1.02 52 0 52 C-0.66 48.04 -1.32 44.08 -2 40 C-2.33 40 -2.66 40 -3 40 C-3 34.72 -3 29.44 -3 24 C-2.67 24 -2.34 24 -2 24 C-1.34 16.08 -0.68 8.16 0 0 Z " fill="#111517" transform="translate(653,296)"/>
<path d="M0 0 C2.4375 0.75 2.4375 0.75 4.4375 2.75 C4.6875 5.75 4.6875 5.75 4.4375 8.75 C2.4375 10.75 2.4375 10.75 -0.5625 11 C-3.5625 10.75 -3.5625 10.75 -5.5625 8.75 C-5.875 5.25 -5.875 5.25 -5.5625 1.75 C-2.5625 -0.25 -2.5625 -0.25 0 0 Z " fill="#979C97" transform="translate(349.5625,793.25)"/>
<path d="M0 0 C3.125 0.25 3.125 0.25 5.0625 1.4375 C6.125 3.25 6.125 3.25 5.9375 5.8125 C5.125 8.25 5.125 8.25 3.125 10.25 C0.125 10.0625 0.125 10.0625 -2.875 9.25 C-4.875 6.25 -4.875 6.25 -4.5625 3.625 C-3.58556988 0.25015051 -3.59697395 0.31278034 0 0 Z " fill="#313436" transform="translate(589.875,793.75)"/>
<path d="M0 0 C0.33 -0.66 0.66 -1.32 1 -2 C1 -1.01 1 -0.02 1 1 C-11.54 1 -24.08 1 -37 1 C-29.17703239 -4.21531174 -8.096827 -4.0484135 0 0 Z " fill="#101515" transform="translate(354,662)"/>
<path d="M0 0 C2.31 0.33 4.62 0.66 7 1 C8.32278481 6.41139241 8.32278481 6.41139241 6.9375 8.9375 C4.08906752 10.49954362 2.06495097 9.74921024 -1 9 C-1.625 6.1875 -1.625 6.1875 -2 3 C-1.34 2.01 -0.68 1.02 0 0 Z " fill="#1F2526" transform="translate(704,794)"/>
<path d="M0 0 C1.33157895 5.44736842 1.33157895 5.44736842 -0.125 7.875 C-2.61629254 9.36977553 -4.14449042 9.43930917 -7 9 C-9 6 -9 6 -8.75 2.875 C-8.37875 1.451875 -8.37875 1.451875 -8 0 C-5.13822943 -1.43088528 -3.06624227 -0.59991697 0 0 Z " fill="#1D1D1C" transform="translate(423,749)"/>
<path d="M0 0 C2.5 0.25 2.5 0.25 4.5 2.25 C4.75 5.25 4.75 5.25 4.5 8.25 C2.5 10.25 2.5 10.25 0 10.5 C-2.5 10.25 -2.5 10.25 -4.5 8.25 C-4.75 5.25 -4.75 5.25 -4.5 2.25 C-2.5 0.25 -2.5 0.25 0 0 Z " fill="#202728" transform="translate(316.5,793.75)"/>
<path d="M0 0 C2.5 0.25 2.5 0.25 4.5 2.25 C4.125 5.875 4.125 5.875 3.5 9.25 C0.625 9.875 0.625 9.875 -2.5 10.25 C-4.5 8.25 -4.5 8.25 -4.75 5.25 C-4.43608753 1.48305032 -3.83691092 0.38369109 0 0 Z " fill="#1F2828" transform="translate(388.5,793.75)"/>
<path d="M0 0 C5.45454545 0.45454545 5.45454545 0.45454545 8 3 C7.8125 5.5 7.8125 5.5 7 8 C4 10 4 10 1.9375 9.75 C0 9 0 9 -2 7 C-2.25 4.5 -2.25 4.5 -2 2 C-1.34 1.34 -0.68 0.68 0 0 Z " fill="#242D30" transform="translate(676,794)"/>
<path d="M0 0 C1.6874269 0.00015917 3.37485866 0.00585622 5.06225586 0.01586914 C6.39189613 0.01799156 6.39189613 0.01799156 7.74839783 0.02015686 C10.59133215 0.02577324 13.43418892 0.03832848 16.27709961 0.05102539 C18.19962452 0.05603828 20.12215065 0.06060155 22.04467773 0.06469727 C26.7680151 0.07574798 31.49129419 0.09302356 36.21459961 0.11352539 C36.21459961 0.44352539 36.21459961 0.77352539 36.21459961 1.11352539 C25.32459961 1.11352539 14.43459961 1.11352539 3.21459961 1.11352539 C2.88459961 2.43352539 2.55459961 3.75352539 2.21459961 5.11352539 C1.55459961 5.11352539 0.89459961 5.11352539 0.21459961 5.11352539 C0.21459961 5.77352539 0.21459961 6.43352539 0.21459961 7.11352539 C-1.43540039 6.78352539 -3.08540039 6.45352539 -4.78540039 6.11352539 C-4.82812139 4.44740634 -4.82603871 2.77969654 -4.78540039 1.11352539 C-3.78540039 0.11352539 -3.78540039 0.11352539 0 0 Z " fill="#4F585A" transform="translate(317.785400390625,555.886474609375)"/>
<path d="M0 0 C0.66 0.33 1.32 0.66 2 1 C1.6875 3.375 1.6875 3.375 1 6 C-2.93304472 8.62202981 -6.26625069 8.25148527 -10.82421875 8.1953125 C-11.68561966 8.1924826 -12.54702057 8.18965271 -13.43452454 8.18673706 C-16.18565769 8.17554237 -18.93646525 8.15043921 -21.6875 8.125 C-23.55272967 8.11496927 -25.41796445 8.10584359 -27.28320312 8.09765625 C-31.8555942 8.07560538 -36.42774189 8.04108049 -41 8 C-41 7.67 -41 7.34 -41 7 C-28.79 6.67 -16.58 6.34 -4 6 C-3.67 4.35 -3.34 2.7 -3 1 C-2.01 0.67 -1.02 0.34 0 0 Z " fill="#6A7272" transform="translate(356,525)"/>
<path d="M0 0 C2.33294775 -0.04241723 4.66702567 -0.04092937 7 0 C8 1 8 1 8.1875 3.4375 C8 6 8 6 6 8 C2.875 8.125 2.875 8.125 0 8 C-1.125 2.25 -1.125 2.25 0 0 Z " fill="#A7AAA3" transform="translate(617,260)"/>
<path d="M0 0 C0.33 0.99 0.66 1.98 1 3 C2.32 3 3.64 3 5 3 C4.67 2.01 4.34 1.02 4 0 C4.66 0 5.32 0 6 0 C6.66 1.65 7.32 3.3 8 5 C19.22 5.33 30.44 5.66 42 6 C42 6.33 42 6.66 42 7 C36.50076251 7.07411371 31.00181521 7.12858464 25.50219727 7.16479492 C23.63105201 7.17988873 21.75994217 7.20036589 19.88891602 7.22631836 C17.20059474 7.26267593 14.51274087 7.27972015 11.82421875 7.29296875 C10.56782845 7.31619453 10.56782845 7.31619453 9.28605652 7.33988953 C3.46887002 7.34157818 3.46887002 7.34157818 1.25495911 5.72871399 C0 4 0 4 0 0 Z " fill="#737977" transform="translate(312,559)"/>
<path d="M0 0 C0.433125 0.495 0.86625 0.99 1.3125 1.5 C2.99740483 3.33218192 2.99740483 3.33218192 6 3 C6.66 3 7.32 3 8 3 C7.34 4.65 6.68 6.3 6 8 C6.99 8.33 7.98 8.66 9 9 C8.67 9.66 8.34 10.32 8 11 C7.34 11 6.68 11 6 11 C6 11.66 6 12.32 6 13 C2.35432696 11.78477565 1.51432978 10.15416646 -0.28125 6.85546875 C-1.27367377 4.29350521 -0.92470627 2.54294225 0 0 Z " fill="#AC9C83" transform="translate(656,400)"/>
<path d="M0 0 C2.5625 0.1875 2.5625 0.1875 4.5625 2.1875 C4.4375 4.6875 4.4375 4.6875 3.5625 7.1875 C1.5 8.5 1.5 8.5 -0.4375 9.1875 C-1.7575 8.1975 -3.0775 7.2075 -4.4375 6.1875 C-3.3735 0.2595 -3.3735 0.2595 0 0 Z " fill="#282B2D" transform="translate(678.4375,556.8125)"/>
<path d="M0 0 C2.00720923 0.28674418 4.0085944 0.61866701 6 1 C6.6875 3.3125 6.6875 3.3125 7 6 C5.8125 7.875 5.8125 7.875 4 9 C1.02602384 8.72963853 0.14553974 8.14553974 -2 6 C-1.44444444 1.44444444 -1.44444444 1.44444444 0 0 Z " fill="#1F2626" transform="translate(676,523)"/>
<path d="M0 0 C2.5625 0.1875 2.5625 0.1875 4.5625 2.1875 C4.00694444 6.74305556 4.00694444 6.74305556 2.5625 8.1875 C0.125 8.375 0.125 8.375 -2.4375 8.1875 C-3.0975 7.5275 -3.7575 6.8675 -4.4375 6.1875 C-3.71780303 0.28598485 -3.71780303 0.28598485 0 0 Z " fill="#2F3033" transform="translate(678.4375,328.8125)"/>
<path d="M0 0 C2.00720923 0.28674418 4.0085944 0.61866701 6 1 C6.625 3.375 6.625 3.375 7 6 C5 8 5 8 2.5 8.25 C0 8 0 8 -2 6 C-1.44444444 1.44444444 -1.44444444 1.44444444 0 0 Z " fill="#262C2D" transform="translate(676,458)"/>
<path d="M0 0 C3.25696479 0.41755959 4.63443291 0.63443291 7 3 C6.46428571 6.53571429 6.46428571 6.53571429 5 8 C2.5625 8.1875 2.5625 8.1875 0 8 C-0.66 7.34 -1.32 6.68 -2 6 C-1.44444444 1.44444444 -1.44444444 1.44444444 0 0 Z " fill="#232526" transform="translate(676,294)"/>
<path d="M0 0 C0.99 0 1.98 0 3 0 C3.12375 0.61875 3.2475 1.2375 3.375 1.875 C3.87197356 4.19120832 3.87197356 4.19120832 6 6 C6 6.99 6 7.98 6 9 C4.375 9.75 4.375 9.75 2 10 C-1.25 8.0625 -1.25 8.0625 -4 6 C-3.67 5.01 -3.34 4.02 -3 3 C-2.34 3 -1.68 3 -1 3 C-0.67 2.01 -0.34 1.02 0 0 Z " fill="#4D5659" transform="translate(665,408)"/>
<path d="M0 0 C1.11375 0.350625 2.2275 0.70125 3.375 1.0625 C6.80264476 2.37239331 6.80264476 2.37239331 9 1 C8.25 6.75 8.25 6.75 6 9 C2.875 8.625 2.875 8.625 0 8 C0 5.36 0 2.72 0 0 Z " fill="#1A2223" transform="translate(591,222)"/>
<path d="M0 0 C5.73842251 -0.20413361 10.60539047 -0.27141454 16 2 C15.34 3.32 14.68 4.64 14 6 C14.66 6.66 15.32 7.32 16 8 C13.36 8 10.72 8 8 8 C8 7.01 8 6.02 8 5 C7.6937566 3.66018514 7.36548445 2.32488113 7 1 C4.69 1 2.38 1 0 1 C0 0.67 0 0.34 0 0 Z " fill="#141A1C" transform="translate(676,362)"/>
<path d="M0 0 C1.4540625 0.0309375 1.4540625 0.0309375 2.9375 0.0625 C3.625 2.375 3.625 2.375 3.9375 5.0625 C2.75 6.9375 2.75 6.9375 0.9375 8.0625 C-1.19995922 7.81103421 -2.52175779 7.60324221 -4.0625 6.0625 C-4.1875 3.5625 -4.1875 3.5625 -4.0625 1.0625 C-3.0625 0.0625 -3.0625 0.0625 0 0 Z " fill="#1F2626" transform="translate(679.0625,490.9375)"/>
<path d="M0 0 C14.19 0 28.38 0 43 0 C43 0.33 43 0.66 43 1 C38.96178295 1.16833857 34.92333583 1.32881721 30.88452148 1.48217773 C29.51204126 1.53538216 28.13964095 1.59069309 26.76733398 1.64819336 C24.7891258 1.73070839 22.81057586 1.80489585 20.83203125 1.87890625 C19.64327393 1.9260376 18.4545166 1.97316895 17.22973633 2.02172852 C14.31628032 2.00212782 11.82024478 1.69052984 9 1 C9 1.66 9 2.32 9 3 C7.68 3 6.36 3 5 3 C5 2.34 5 1.68 5 1 C3.35 1 1.7 1 0 1 C0 0.67 0 0.34 0 0 Z " fill="#0C1312" transform="translate(523,196)"/>
<path d="M0 0 C2.97 0 5.94 0 9 0 C9 0.66 9 1.32 9 2 C6.03 1.505 6.03 1.505 3 1 C4.98 1.66 6.96 2.32 9 3 C8.34 4.32 7.68 5.64 7 7 C6.67 6.01 6.34 5.02 6 4 C4.68 4.33 3.36 4.66 2 5 C2 5.66 2 6.32 2 7 C2.66 7.33 3.32 7.66 4 8 C3.67 8.99 3.34 9.98 3 11 C3 10.34 3 9.68 3 9 C2.34 9 1.68 9 1 9 C1 9.66 1 10.32 1 11 C-0.32 10.67 -1.64 10.34 -3 10 C-2.01 10 -1.02 10 0 10 C0 6.7 0 3.4 0 0 Z " fill="#181711" transform="translate(644,700)"/>
<path d="M0 0 C0.33 0.474375 0.66 0.94875 1 1.4375 C4.09813267 3.85791615 7.12026792 3.68198917 11 4 C11 4.33 11 4.66 11 5 C17.27 5.33 23.54 5.66 30 6 C30 6.33 30 6.66 30 7 C20.1 7 10.2 7 0 7 C0 4.69 0 2.38 0 0 Z " fill="#0F1414" transform="translate(317,598)"/>
<path d="M0 0 C6.27 0 12.54 0 19 0 C18.67 1.32 18.34 2.64 18 4 C18 3.34 18 2.68 18 2 C10.08 2.495 10.08 2.495 2 3 C2 4.65 2 6.3 2 8 C1.34 8 0.68 8 0 8 C0 5.36 0 2.72 0 0 Z " fill="#333935" transform="translate(334,748)"/>
<path d="M0 0 C2 3 2 3 2.0625 5.375 C0.4839118 9.27504143 -2.49833006 10.85145578 -6 13 C-6.33 11.02 -6.66 9.04 -7 7 C-6.01 7 -5.02 7 -4 7 C-2.68 4.69 -1.36 2.38 0 0 Z " fill="#262A29" transform="translate(704,413)"/>
<path d="M0 0 C0.99 0.66 1.98 1.32 3 2 C3 2.99 3 3.98 3 5 C-1.22222222 8 -1.22222222 8 -4 8 C-4.33 8.99 -4.66 9.98 -5 11 C-5.66 10.67 -6.32 10.34 -7 10 C-6.42424336 6.64749299 -5.40693737 5.06181371 -2.9375 2.75 C-2.38964844 2.22921875 -1.84179688 1.7084375 -1.27734375 1.171875 C-0.64505859 0.59179688 -0.64505859 0.59179688 0 0 Z " fill="#646564" transform="translate(694,378)"/>
<path d="M0 0 C2.64 0 5.28 0 8 0 C8 0.33 8 0.66 8 1 C5.69 1 3.38 1 1 1 C1 6.94 1 12.88 1 19 C2.98 19 4.96 19 7 19 C7 18.34 7 17.68 7 17 C7.99 17 8.98 17 10 17 C10 17.99 10 18.98 10 20 C6.7 20 3.4 20 0 20 C0 13.4 0 6.8 0 0 Z " fill="#313331" transform="translate(616,291)"/>
<path d="M0 0 C0.33 0.66 0.66 1.32 1 2 C1.99 2.33 2.98 2.66 4 3 C3.01 3.495 3.01 3.495 2 4 C2.495 4.45375 2.99 4.9075 3.5 5.375 C5 7 5 7 5 9 C2.625 9.1875 2.625 9.1875 0 9 C-2 6 -2 6 -1.6875 3.375 C-1 1 -1 1 0 0 Z " fill="#586263" transform="translate(314,459)"/>
<path d="M0 0 C1.65 0.33 3.3 0.66 5 1 C4.01 3.31 3.02 5.62 2 8 C2.66 8 3.32 8 4 8 C4 8.66 4 9.32 4 10 C4.66 10.33 5.32 10.66 6 11 C3.125 11.125 3.125 11.125 0 11 C-2.1385485 8.8614515 -2.42655063 7.86724686 -3 5 C-2.34 4.67 -1.68 4.34 -1 4 C-0.67 4.33 -0.34 4.66 0 5 C0 3.35 0 1.7 0 0 Z " fill="#1C2328" transform="translate(586,379)"/>
<path d="M0 0 C1.36328912 3.68088063 0.58375966 5.49905759 -1 9 C-1.67795528 10.99620166 -2.34733531 12.99538701 -3 15 C-4.24546405 12.50907189 -3.7767578 11.58919267 -3 9 C-3.66 8.67 -4.32 8.34 -5 8 C-4.67 7.01 -4.34 6.02 -4 5 C-4.66 4.67 -5.32 4.34 -6 4 C-4.02 2.68 -2.04 1.36 0 0 Z " fill="#24292B" transform="translate(661,366)"/>
<path d="M0 0 C0.33 0 0.66 0 1 0 C1 9.57 1 19.14 1 29 C0.01 28.67 -0.98 28.34 -2 28 C-1.76228882 27.18450684 -1.76228882 27.18450684 -1.51977539 26.35253906 C-0.92399019 23.65597437 -0.78635695 21.11930105 -0.68359375 18.359375 C-0.62075195 16.75449219 -0.62075195 16.75449219 -0.55664062 15.1171875 C-0.51732422 14.00601563 -0.47800781 12.89484375 -0.4375 11.75 C-0.39431641 10.62335937 -0.35113281 9.49671875 -0.30664062 8.3359375 C-0.20067985 5.55741046 -0.09860858 2.77879609 0 0 Z " fill="#DDE0DC" transform="translate(586,512)"/>
<path d="M0 0 C0.99 0 1.98 0 3 0 C3.12375 0.78375 3.2475 1.5675 3.375 2.375 C3.79117993 5.14057822 3.79117993 5.14057822 6 7 C6 7.66 6 8.32 6 9 C4.35 8.67 2.7 8.34 1 8 C1 7.34 1 6.68 1 6 C0.34 6 -0.32 6 -1 6 C-1.042721 4.33388095 -1.04063832 2.66617115 -1 1 C-0.67 0.67 -0.34 0.34 0 0 Z " fill="#696E6F" transform="translate(522,236)"/>
<path d="M0 0 C4 2 4 2 5.25 4.625 C5.4975 5.40875 5.745 6.1925 6 7 C5.34 7.66 4.68 8.32 4 9 C2.68 9 1.36 9 0 9 C0 6.03 0 3.06 0 0 Z " fill="#222726" transform="translate(589,795)"/>
<path d="M0 0 C0.99 0.33 1.98 0.66 3 1 C-0.33333333 4.33333333 -3.66666667 7.66666667 -7 11 C-7.33 10.01 -7.66 9.02 -8 8 C-6.85546875 6.2109375 -6.85546875 6.2109375 -5.1875 4.375 C-4.64480469 3.76398438 -4.10210938 3.15296875 -3.54296875 2.5234375 C-2 1 -2 1 0 0 Z " fill="#B5AD96" transform="translate(665,376)"/>
<path d="M0 0 C1.5625 1.1875 1.5625 1.1875 3 3 C2.6875 5.6875 2.6875 5.6875 2 8 C1.01 8.33 0.02 8.66 -1 9 C-1.66 8.34 -2.32 7.68 -3 7 C-2.625 4.375 -2.625 4.375 -2 2 C-1.34 2 -0.68 2 0 2 C0 1.34 0 0.68 0 0 Z " fill="#6A7372" transform="translate(355,556)"/>
<path d="M0 0 C1.32 0.33 2.64 0.66 4 1 C2.68 3.97 1.36 6.94 0 10 C-1.32 8.68 -2.64 7.36 -4 6 C-2.68 4.02 -1.36 2.04 0 0 Z " fill="#CED0CD" transform="translate(710,412)"/>
<path d="M0 0 C0.99 0.33 1.98 0.66 3 1 C3 2.65 3 4.3 3 6 C1.35 6.33 -0.3 6.66 -2 7 C-2 6.34 -2 5.68 -2 5 C-2.99 5 -3.98 5 -5 5 C-5 4.34 -5 3.68 -5 3 C-4.34 3 -3.68 3 -3 3 C-2.67 2.34 -2.34 1.68 -2 1 C-1.34 0.67 -0.68 0.34 0 0 Z " fill="#13181B" transform="translate(660,414)"/>
<path d="M0 0 C1.98 0.99 1.98 0.99 4 2 C3.67 4.31 3.34 6.62 3 9 C2.01 9 1.02 9 0 9 C0 6.03 0 3.06 0 0 Z " fill="#1C2121" transform="translate(389,794)"/>
<path d="M0 0 C2.05078125 0.03255208 4.1015625 0.06510417 6.15234375 0.09765625 C6.15234375 1.08765625 6.15234375 2.07765625 6.15234375 3.09765625 C0.87234375 3.09765625 -4.40765625 3.09765625 -9.84765625 3.09765625 C-9.84765625 2.76765625 -9.84765625 2.43765625 -9.84765625 2.09765625 C-8.71328125 1.95328125 -7.57890625 1.80890625 -6.41015625 1.66015625 C-3.51115113 1.2024186 -2.54328457 0.13442307 0 0 Z " fill="#5E6469" transform="translate(417.84765625,705.90234375)"/>
<path d="M0 0 C0.33 1.98 0.66 3.96 1 6 C-2 5 -2 5 -3.1875 2.9375 C-3.455625 2.298125 -3.72375 1.65875 -4 1 C-4.33 1.66 -4.66 2.32 -5 3 C-5.99 3.495 -5.99 3.495 -7 4 C-7.33 2.68 -7.66 1.36 -8 0 C-5.13822943 -1.43088528 -3.06624227 -0.59991697 0 0 Z " fill="#363635" transform="translate(423,749)"/>
<path d="M0 0 C4.29 0 8.58 0 13 0 C13 3.3 13 6.6 13 10 C12.67 10 12.34 10 12 10 C11.67 7.69 11.34 5.38 11 3 C7.37 2.34 3.74 1.68 0 1 C0 0.67 0 0.34 0 0 Z " fill="#2E2A1D" transform="translate(393,490)"/>
<path d="M0 0 C2.00720923 0.28674418 4.0085944 0.61866701 6 1 C5.360625 1.268125 4.72125 1.53625 4.0625 1.8125 C1.66868314 2.88667752 1.66868314 2.88667752 1 6 C0.01 6 -0.98 6 -2 6 C-1.125 1.125 -1.125 1.125 0 0 Z " fill="#333B3B" transform="translate(676,523)"/>
<path d="M0 0 C0 0.66 0 1.32 0 2 C0.66 2.66 1.32 3.32 2 4 C-0.64 4.33 -3.28 4.66 -6 5 C-6 3.68 -6 2.36 -6 1 C-4 0 -4 0 0 0 Z " fill="#1F242A" transform="translate(651,344)"/>
<path d="M0 0 C1.42944945 2.35438733 2.08661261 3.48032433 1.625 6.25 C1.41875 6.8275 1.2125 7.405 1 8 C0.34 8 -0.32 8 -1 8 C-0.67 8.99 -0.34 9.98 0 11 C-0.99 11.99 -1.98 12.98 -3 14 C-2.73958333 11.98177083 -2.47916667 9.96354167 -2.21875 7.9453125 C-1.9627515 5.99501656 -1.9627515 5.99501656 -2 4 C-1.36525925 2.65117592 -0.70151152 1.3153341 0 0 Z " fill="#DEDFDC" transform="translate(565,825)"/>
<path d="M0 0 C0.99 0 1.98 0 3 0 C3.1953125 6.0546875 3.1953125 6.0546875 3 8 C2.34 8.66 1.68 9.32 1 10 C-0.60725635 6.78548731 -0.05748185 3.56387464 0 0 Z " fill="#12171A" transform="translate(488,400)"/>
<path d="M0 0 C0.99 0 1.98 0 3 0 C3.6875 1.8125 3.6875 1.8125 4 4 C2.5625 5.75 2.5625 5.75 1 7 C0.01 6.67 -0.98 6.34 -2 6 C-1.125 1.125 -1.125 1.125 0 0 Z " fill="#252726" transform="translate(676,329)"/>
<path d="M0 0 C0.66 0.33 1.32 0.66 2 1 C2.33 0.67 2.66 0.34 3 0 C3.66 0.33 4.32 0.66 5 1 C3.68 3.31 2.36 5.62 1 8 C0.67 7.01 0.34 6.02 0 5 C-0.99 4.67 -1.98 4.34 -3 4 C-2.01 3.67 -1.02 3.34 0 3 C0 2.01 0 1.02 0 0 Z " fill="#D1D3CE" transform="translate(510,824)"/>
<path d="M0 0 C2 0 2 0 3.5 1.1875 C5.26495414 3.32015292 6.08699059 5.40143476 7 8 C4.03 7.505 4.03 7.505 1 7 C0.67 4.69 0.34 2.38 0 0 Z " fill="#D0D2CE" transform="translate(584,800)"/>
<path d="M0 0 C0.99 0 1.98 0 3 0 C3.33 1.65 3.66 3.3 4 5 C2.1875 5.625 2.1875 5.625 0 6 C-0.99 5.34 -1.98 4.68 -3 4 C-2.67 3.34 -2.34 2.68 -2 2 C-1.34 2 -0.68 2 0 2 C0 1.34 0 0.68 0 0 Z " fill="#CFD4CD" transform="translate(682,496)"/>
<path d="M0 0 C0 4.1592308 -2.24683568 6.14544435 -5 9 C-7.3125 10.875 -7.3125 10.875 -9 12 C-9.66 11.67 -10.32 11.34 -11 11 C-7.37 7.37 -3.74 3.74 0 0 Z " fill="#5F5F54" transform="translate(687,386)"/>
<path d="M0 0 C2.97 0 5.94 0 9 0 C8.67 1.65 8.34 3.3 8 5 C4.5625 4.1875 4.5625 4.1875 1 3 C0.67 2.01 0.34 1.02 0 0 Z " fill="#2B2A2F" transform="translate(588,330)"/>
<path d="M0 0 C0.99 0.33 1.98 0.66 3 1 C2.67 2.65 2.34 4.3 2 6 C2.66 6 3.32 6 4 6 C4 5.34 4 4.68 4 4 C4.66 4.33 5.32 4.66 6 5 C5.67 5.66 5.34 6.32 5 7 C2.69 7 0.38 7 -2 7 C-1.67 6.401875 -1.34 5.80375 -1 5.1875 C0.20787988 2.94613529 0.20787988 2.94613529 0 0 Z " fill="#252A30" transform="translate(590,304)"/>
<path d="M0 0 C1.32 0.33 2.64 0.66 4 1 C4 1.66 4 2.32 4 3 C3.34 3 2.68 3 2 3 C2.99 4.98 3.98 6.96 5 9 C4.01 9 3.02 9 2 9 C-0.29013653 5.5647952 -0.17842973 4.014669 0 0 Z " fill="#323736" transform="translate(546,832)"/>
<path d="M0 0 C1.32 0.66 2.64 1.32 4 2 C3.01 2 2.02 2 1 2 C1 2.99 1 3.98 1 5 C-0.65 5.66 -2.3 6.32 -4 7 C-4.33 6.34 -4.66 5.68 -5 5 C-3.625 3.5 -3.625 3.5 -2 2 C-1.34 2 -0.68 2 0 2 C0 1.34 0 0.68 0 0 Z " fill="#CFD3CE" transform="translate(551,786)"/>
<path d="M0 0 C0.33 0.99 0.66 1.98 1 3 C2.32 3 3.64 3 5 3 C4.67 2.01 4.34 1.02 4 0 C4.66 0 5.32 0 6 0 C6.66 1.65 7.32 3.3 8 5 C5.125 5.625 5.125 5.625 2 6 C1.34 5.34 0.68 4.68 0 4 C0 2.68 0 1.36 0 0 Z " fill="#687073" transform="translate(312,559)"/>
<path d="M0 0 C0.66 0 1.32 0 2 0 C1.34 4.95 0.68 9.9 0 15 C-0.33 15 -0.66 15 -1 15 C-1.33 10.71 -1.66 6.42 -2 2 C-1.34 2 -0.68 2 0 2 C0 1.34 0 0.68 0 0 Z " fill="#C5C7C2" transform="translate(715,386)"/>
<path d="M0 0 C3.3 0 6.6 0 10 0 C9.67 0.99 9.34 1.98 9 3 C2.84765625 2.4140625 2.84765625 2.4140625 1 2 C0.67 1.34 0.34 0.68 0 0 Z " fill="#1E1C14" transform="translate(656,709)"/>
<path d="M0 0 C0.33 0.99 0.66 1.98 1 3 C1.66 3.66 2.32 4.32 3 5 C2.38125 5.12375 1.7625 5.2475 1.125 5.375 C-1.19120832 5.87197356 -1.19120832 5.87197356 -3 8 C-4.0625 6.125 -4.0625 6.125 -5 4 C-3.74458443 1.48916886 -2.49936512 1.12874554 0 0 Z " fill="#CCCEC9" transform="translate(677,552)"/>
<path d="M0 0 C0.66 0.33 1.32 0.66 2 1 C0.63016497 4.16115776 0.0109362 4.9927092 -3 7 C-3.33 5.68 -3.66 4.36 -4 3 C-2.68 2.01 -1.36 1.02 0 0 Z " fill="#B6AD93" transform="translate(685,384)"/>
<path d="M0 0 C1.98 0.495 1.98 0.495 4 1 C4 1.99 4 2.98 4 4 C1.5 6.1875 1.5 6.1875 -1 8 C-0.835 7.236875 -0.67 6.47375 -0.5 5.6875 C0.09145396 2.96403764 0.09145396 2.96403764 0 0 Z " fill="#B5B29C" transform="translate(689,376)"/>
<path d="M0 0 C0.66 0 1.32 0 2 0 C2.0825 0.94875 2.165 1.8975 2.25 2.875 C2.65074923 6.10461791 2.65074923 6.10461791 5.0625 7.375 C5.701875 7.58125 6.34125 7.7875 7 8 C6.67 8.66 6.34 9.32 6 10 C3.54896452 9.01958581 2.23241214 8.3486182 0.75 6.125 C0 4 0 4 0 0 Z " fill="#2C302D" transform="translate(546,796)"/>
<path d="M0 0 C0.99 0.99 1.98 1.98 3 3 C1.9375 5.4375 1.9375 5.4375 0 8 C-3.6875 8.8125 -3.6875 8.8125 -7 9 C-6.38125 8.71125 -5.7625 8.4225 -5.125 8.125 C-2.86674235 7.06279958 -2.86674235 7.06279958 -1 5 C-0.35232207 2.42938689 -0.35232207 2.42938689 0 0 Z " fill="#DFE1DD" transform="translate(683,330)"/>
<path d="M0 0 C1.98 0 3.96 0 6 0 C5.67 1.32 5.34 2.64 5 4 C3.125 4.625 3.125 4.625 1 5 C0.34 4.34 -0.32 3.68 -1 3 C-0.67 2.01 -0.34 1.02 0 0 Z " fill="#272B2A" transform="translate(525,246)"/>
<path d="M0 0 C0.99 0.66 1.98 1.32 3 2 C4.9896995 2.39013716 6.99019869 2.73202649 9 3 C9 3.33 9 3.66 9 4 C4.545 4.495 4.545 4.495 0 5 C-0.66 4.01 -1.32 3.02 -2 2 C-1.34 2 -0.68 2 0 2 C0 1.34 0 0.68 0 0 Z " fill="#BDC0BA" transform="translate(547,803)"/>
<path d="M0 0 C-0.33 1.65 -0.66 3.3 -1 5 C-3.31 4.34 -5.62 3.68 -8 3 C-3.5 0 -3.5 0 0 0 Z " fill="#BEC3BB" transform="translate(697,427)"/>
<path d="M0 0 C2.3431213 0.25561323 4.67843403 0.59270772 7 1 C7.33 1.66 7.66 2.32 8 3 C5.03 3 2.06 3 -1 3 C-0.67 2.01 -0.34 1.02 0 0 Z " fill="#131918" transform="translate(449,717)"/>
<path d="M0 0 C4.95 0 9.9 0 15 0 C14.01 0.33 13.02 0.66 12 1 C12 1.66 12 2.32 12 3 C6.06 2.01 6.06 2.01 0 1 C0 0.67 0 0.34 0 0 Z " fill="#141819" transform="translate(343,653)"/>
<path d="M0 0 C0.99 0 1.98 0 3 0 C2.1875 1.9375 2.1875 1.9375 1 4 C0.01 4.33 -0.98 4.66 -2 5 C-2.33 5.66 -2.66 6.32 -3 7 C-3.33 6.34 -3.66 5.68 -4 5 C-3.67 4.34 -3.34 3.68 -3 3 C-2.34 3 -1.68 3 -1 3 C-0.67 2.01 -0.34 1.02 0 0 Z " fill="#54564D" transform="translate(665,408)"/>
<path d="M0 0 C2.64 0.33 5.28 0.66 8 1 C8 1.33 8 1.66 8 2 C6.35 2 4.7 2 3 2 C3 2.66 3 3.32 3 4 C1.35 3.67 -0.3 3.34 -2 3 C-1.34 2.01 -0.68 1.02 0 0 Z " fill="#DDE0D9" transform="translate(517,251)"/>
<path d="M0 0 C2.31 0.33 4.62 0.66 7 1 C7.33 2.98 7.66 4.96 8 7 C7.67 6.34 7.34 5.68 7 5 C6.01 4.67 5.02 4.34 4 4 C4 3.34 4 2.68 4 2 C2.68 1.34 1.36 0.68 0 0 Z " fill="#2F3636" transform="translate(704,794)"/>
<path d="M0 0 C1.2065625 0.0309375 1.2065625 0.0309375 2.4375 0.0625 C1.1175 1.7125 -0.2025 3.3625 -1.5625 5.0625 C-2.2225 4.7325 -2.8825 4.4025 -3.5625 4.0625 C-3.5625 0.08689024 -3.5625 0.08689024 0 0 Z " fill="#B4AC93" transform="translate(677.5625,392.9375)"/>
<path d="M0 0 C1.0625 1.875 1.0625 1.875 2 4 C1.67 4.66 1.34 5.32 1 6 C-0.65 5.67 -2.3 5.34 -4 5 C-4 4.01 -4 3.02 -4 2 C-2.68 1.34 -1.36 0.68 0 0 Z " fill="#1F2628" transform="translate(556,200)"/>
<path d="M0 0 C1.32 0.33 2.64 0.66 4 1 C4 2.65 4 4.3 4 6 C3.01 5.67 2.02 5.34 1 5 C0.67 3.35 0.34 1.7 0 0 Z " fill="#2B302E" transform="translate(585,797)"/>
<path d="M0 0 C0.66 0.33 1.32 0.66 2 1 C2.625 4.0625 2.625 4.0625 3 7 C2.01 7 1.02 7 0 7 C-1 6 -1 6 -1.125 3.5 C-1 1 -1 1 0 0 Z " fill="#151B1A" transform="translate(675,795)"/>
<path d="M0 0 C0.33 0 0.66 0 1 0 C1 1.65 1 3.3 1 5 C0.34 5 -0.32 5 -1 5 C-1.33 5.99 -1.66 6.98 -2 8 C-2.66 7.67 -3.32 7.34 -4 7 C-3.67 5.35 -3.34 3.7 -3 2 C-2.34 2 -1.68 2 -1 2 C-0.67 1.34 -0.34 0.68 0 0 Z " fill="#BFC0BA" transform="translate(333,751)"/>
<path d="M0 0 C0.33 0 0.66 0 1 0 C1 2.97 1 5.94 1 9 C-0.32 8.34 -1.64 7.68 -3 7 C-2.1654738 4.49642139 -1.20628008 2.33214148 0 0 Z " fill="#DFE3DB" transform="translate(315,595)"/>
<path d="M0 0 C1.65 0 3.3 0 5 0 C5.33 0.99 5.66 1.98 6 3 C5.67 3.66 5.34 4.32 5 5 C4.34 5 3.68 5 3 5 C3 4.34 3 3.68 3 3 C2.34 2.67 1.68 2.34 1 2 C0.67 1.34 0.34 0.68 0 0 Z " fill="#515C5F" transform="translate(315,556)"/>
<path d="M0 0 C0 1.65 0 3.3 0 5 C-1.65 4.67 -3.3 4.34 -5 4 C-4.67 3.01 -4.34 2.02 -4 1 C-1 0 -1 0 0 0 Z " fill="#5A6569" transform="translate(318,527)"/>
<path d="M0 0 C1.98 0.495 1.98 0.495 4 1 C3.43628586 4.26954202 2.50037734 5.82575883 0 8 C-0.79953138 4.71303767 -1.09658936 3.28976808 0 0 Z " fill="#DDDEDC" transform="translate(684,459)"/>
<path d="M0 0 C2.475 0.99 2.475 0.99 5 2 C2.8614515 4.1385485 1.86724686 4.42655063 -1 5 C-1.33 4.01 -1.66 3.02 -2 2 C-1.34 1.34 -0.68 0.68 0 0 Z " fill="#CACCC8" transform="translate(660,426)"/>
<path d="M0 0 C0.66 0 1.32 0 2 0 C2 1.65 2 3.3 2 5 C0.68 4.67 -0.64 4.34 -2 4 C-1.34 2.68 -0.68 1.36 0 0 Z M-3 5 C-2.01 5.495 -2.01 5.495 -1 6 C-1.99 6.495 -1.99 6.495 -3 7 C-3 6.34 -3 5.68 -3 5 Z " fill="#D1D3CE" transform="translate(701,423)"/>
<path d="M0 0 C1.9375 0.375 1.9375 0.375 4 1 C4.33 1.66 4.66 2.32 5 3 C4.01 3.33 3.02 3.66 2 4 C1.34 4.66 0.68 5.32 0 6 C0 5.34 0 4.68 0 4 C-0.66 3.67 -1.32 3.34 -2 3 C-1.34 2.01 -0.68 1.02 0 0 Z " fill="#D0D2CD" transform="translate(674,291)"/>
<path d="M0 0 C1.32 0.66 2.64 1.32 4 2 C3.67 2.99 3.34 3.98 3 5 C1.35 5 -0.3 5 -2 5 C-1.34 3.35 -0.68 1.7 0 0 Z " fill="#D1D3CD" transform="translate(521,842)"/>
<path d="M0 0 C0.928125 0.2784375 0.928125 0.2784375 1.875 0.5625 C4.04160178 1.23686176 4.04160178 1.23686176 6 0 C5.6875 1.9375 5.6875 1.9375 5 4 C4.01 4.33 3.02 4.66 2 5 C1.34 4.34 0.68 3.68 0 3 C0 2.01 0 1.02 0 0 Z " fill="#CECECD" transform="translate(393,797)"/>
<path d="M0 0 C1.32 0.33 2.64 0.66 4 1 C4 2.66666667 4 4.33333333 4 6 C3.01 6.33 2.02 6.66 1 7 C1.020625 6.21625 1.04125 5.4325 1.0625 4.625 C1.18684063 2.01885039 1.18684063 2.01885039 0 0 Z " fill="#CED2CB" transform="translate(673,497)"/>
<path d="M0 0 C1.98 0 3.96 0 6 0 C5.67 0.99 5.34 1.98 5 3 C4.34 3 3.68 3 3 3 C2.67 3.66 2.34 4.32 2 5 C2 4.34 2 3.68 2 3 C1.01 2.67 0.02 2.34 -1 2 C-0.67 1.34 -0.34 0.68 0 0 Z " fill="#252E31" transform="translate(676,491)"/>
<path d="M0 0 C0.99 0.33 1.98 0.66 3 1 C2.67 1.66 2.34 2.32 2 3 C1.34 3 0.68 3 0 3 C0 3.66 0 4.32 0 5 C-0.99 4.67 -1.98 4.34 -3 4 C-2.67 3.01 -2.34 2.02 -2 1 C-1.34 0.67 -0.68 0.34 0 0 Z " fill="#9C9988" transform="translate(662,408)"/>
</svg>
